<?xml version="1.0" encoding="UTF-8"?>
<svg version="1.1" xmlns="http://www.w3.org/2000/svg" width="283" height="96">
<path d="M0 0 C93.39 0 186.78 0 283 0 C283 31.68 283 63.36 283 96 C189.61 96 96.22 96 0 96 C0 64.32 0 32.64 0 0 Z " fill="#FAFCFD" transform="translate(0,0)"/>
<path d="M0 0 C0.33 0 0.66 0 1 0 C1 31.68 1 63.36 1 96 C0.67 96 0.34 96 0 96 C-0.33 89.73 -0.66 83.46 -1 77 C-5.62 77 -10.24 77 -15 77 C-15 75.68 -15 74.36 -15 73 C-15.66 73 -16.32 73 -17 73 C-17 74.32 -17 75.64 -17 77 C-17.66 77 -18.32 77 -19 77 C-19.33 76.34 -19.66 75.68 -20 75 C-20 75.66 -20 76.32 -20 77 C-20.99 77 -21.98 77 -23 77 C-23 75.68 -23 74.36 -23 73 C-24.32 73 -25.64 73 -27 73 C-27 74.32 -27 75.64 -27 77 C-30.63 77 -34.26 77 -38 77 C-38 76.01 -38 75.02 -38 74 C-39.32 74 -40.64 74 -42 74 C-42 74.99 -42 75.98 -42 77 C-42.99 77 -43.98 77 -45 77 C-45 74.03 -45 71.06 -45 68 C-39.25 67.875 -39.25 67.875 -37 69 C-37 69.66 -37 70.32 -37 71 C-35.68 71 -34.36 71 -33 71 C-33.33 70.01 -33.66 69.02 -34 68 C-46.21 68 -58.42 68 -71 68 C-69.68 68.66 -68.36 69.32 -67 70 C-67 69.34 -67 68.68 -67 68 C-66.34 68 -65.68 68 -65 68 C-64.34 69.32 -63.68 70.64 -63 72 C-62.67 71.67 -62.34 71.34 -62 71 C-60.33382885 70.95936168 -58.66611905 70.957279 -57 71 C-56.375 72.875 -56.375 72.875 -56 75 C-56.66 75.66 -57.32 76.32 -58 77 C-59.671549 76.69208308 -61.33805547 76.35613097 -63 76 C-65.23167185 76.36856864 -65.23167185 76.36856864 -67 77 C-67 75.68 -67 74.36 -67 73 C-67.66 73 -68.32 73 -69 73 C-68.67 74.32 -68.34 75.64 -68 77 C-75.92 77 -83.84 77 -92 77 C-92 75.68 -92 74.36 -92 73 C-92.99 73 -93.98 73 -95 73 C-95 74.32 -95 75.64 -95 77 C-95.66 77 -96.32 77 -97 77 C-97 75.68 -97 74.36 -97 73 C-97.66 73 -98.32 73 -99 73 C-99 74.32 -99 75.64 -99 77 C-101.97 77 -104.94 77 -108 77 C-108.38218767 75.34385343 -108.71395102 73.67542976 -109 72 C-107.03177114 70.03177114 -103.65191291 70.33751619 -101 70 C-100.505 68.515 -100.505 68.515 -100 67 C-107.59 67 -115.18 67 -123 67 C-123 67.66 -123 68.32 -123 69 C-122.34 69 -121.68 69 -121 69 C-121 69.66 -121 70.32 -121 71 C-118.03 71 -115.06 71 -112 71 C-111.67 70.34 -111.34 69.68 -111 69 C-111 71.64 -111 74.28 -111 77 C-117.27 77 -123.54 77 -130 77 C-130 76.01 -130 75.02 -130 74 C-130.99 74 -131.98 74 -133 74 C-133.495 75.485 -133.495 75.485 -134 77 C-134.66 77 -135.32 77 -136 77 C-136 74.69 -136 72.38 -136 70 C-135.01 69.67 -134.02 69.34 -133 69 C-133 68.34 -133 67.68 -133 67 C-138.94 67 -144.88 67 -151 67 C-150.01 68.32 -149.02 69.64 -148 71 C-147.8125 74.25 -147.8125 74.25 -148 77 C-154 77 -160 77 -166 77 C-166 75.68 -166 74.36 -166 73 C-166.66 73 -167.32 73 -168 73 C-168 74.32 -168 75.64 -168 77 C-171.63 77 -175.26 77 -179 77 C-179 74.03 -179 71.06 -179 68 C-182.465 67.505 -182.465 67.505 -186 67 C-185.67 67.53625 -185.34 68.0725 -185 68.625 C-184 71 -184 71 -184 77 C-192.91 77 -201.82 77 -211 77 C-211 68 -211 68 -210 65 C-153.9 64.67 -97.8 64.34 -40 64 C-42.31 62.02 -44.62 60.04 -47 58 C-49.17330391 54.74004414 -49.24921459 53.77020034 -49.1875 50 C-49.17783203 48.700625 -49.17783203 48.700625 -49.16796875 47.375 C-48.97166325 44.59933151 -48.43788481 42.60564587 -46.796875 40.3359375 C-42.98584708 37.50252109 -37.51213112 38.54646105 -33 39 C-30.38786924 39.75751792 -28.40216209 40.68972977 -26 42 C-26.0309375 40.4221875 -26.0309375 40.4221875 -26.0625 38.8125 C-26.01103198 35.67295096 -25.73482813 33.03116604 -25 30 C-22.66705225 29.95758277 -20.33297433 29.95907063 -18 30 C-16.05909174 31.94090826 -16.60080565 35.47293902 -16.4375 38.0625 C-16.35371094 39.35285156 -16.26992188 40.64320312 -16.18359375 41.97265625 C-16.12300781 42.97167969 -16.06242188 43.97070312 -16 45 C-15.38125 44.34 -14.7625 43.68 -14.125 43 C-12 41 -12 41 -10 41 C-10 40.01 -10 39.02 -10 38 C-3.84765625 37.90234375 -3.84765625 37.90234375 -2 38 C-1.67 38.33 -1.34 38.66 -1 39 C-0.67 26.13 -0.34 13.26 0 0 Z " fill="#E3E4E4" transform="translate(282,0)"/>
<path d="M0 0 C2.33294775 -0.04241723 4.66702567 -0.04092937 7 0 C8.94090826 1.94090826 8.39919435 5.47293902 8.5625 8.0625 C8.64628906 9.35285156 8.73007812 10.64320312 8.81640625 11.97265625 C8.87699219 12.97167969 8.93757813 13.97070312 9 15 C9.61875 14.34 10.2375 13.68 10.875 13 C13 11 13 11 15 11 C15 10.01 15 9.02 15 8 C22.75 7.875 22.75 7.875 25 9 C25 17.58 25 26.16 25 35 C19.85789649 35.09214322 14.71868924 35.1716814 9.57641602 35.21972656 C7.82957216 35.23976622 6.08279475 35.26700587 4.33618164 35.30175781 C1.81640168 35.35061582 -0.70248685 35.37304486 -3.22265625 35.390625 C-3.99585709 35.41127014 -4.76905792 35.43191528 -5.56568909 35.45318604 C-12.60246103 35.45605805 -16.6585402 33.09236833 -21.9375 28.375 C-24.70051414 23.85370413 -24.62344559 20.17459836 -24 15 C-22.97843681 11.93531044 -22.53346123 10.88357335 -20 9 C-13.12782489 7.97520196 -7.07601576 8.68580959 -1 12 C-1.020625 10.948125 -1.04125 9.89625 -1.0625 8.8125 C-1.01103198 5.67295096 -0.73482813 3.03116604 0 0 Z " fill="#EBF6FA" transform="translate(257,30)"/>
<path d="M0 0 C2.56278699 -0.05420701 5.12441483 -0.09377007 7.6875 -0.125 C8.40873047 -0.14175781 9.12996094 -0.15851562 9.87304688 -0.17578125 C15.71655437 -0.22914662 19.21242976 0.50342956 23.6875 4.25 C27.67635043 8.99349781 28.4125897 13.59666992 28.25 19.6328125 C27.51886442 26.55575252 25.15806523 32.30042945 20 37 C15.16157519 39.14925737 9.19931177 39.95597102 4 39 C-2.4142966 36.43428136 -7.1083076 33.06439708 -10.078125 26.68359375 C-11.99034408 21.1170916 -11.72189524 15.16568572 -9.875 9.625 C-7.544766 6.3626724 -5.25089203 4.35170913 -2 2 C-1.34 2 -0.68 2 0 2 C0 1.34 0 0.68 0 0 Z " fill="#F7FBFC" transform="translate(20,32)"/>
<path d="M0 0 C0 0.66 0 1.32 0 2 C0.53625 2.2475 1.0725 2.495 1.625 2.75 C10.20685694 7.26676681 10.20685694 7.26676681 12 13 C13.31734267 21.201201 13.63561345 28.42312418 10 36 C9.54625 36.99 9.0925 37.98 8.625 39 C7 41 7 41 4.3125 41.8125 C3.549375 41.874375 2.78625 41.93625 2 42 C2 42.66 2 43.32 2 44 C-0.475 44.495 -0.475 44.495 -3 45 C-3 45.66 -3 46.32 -3 47 C-10.82970454 49.2267967 -17.66467626 48.26014388 -25 45 C-25 44.34 -25 43.68 -25 43 C-25.99 43 -26.98 43 -28 43 C-28 42.34 -28 41.68 -28 41 C-28.66 41 -29.32 41 -30 41 C-31.34919532 39.34614767 -32.68133728 37.678298 -34 36 C-34.99 35.34 -35.98 34.68 -37 34 C-37 33.01 -37 32.02 -37 31 C-37.66 31 -38.32 31 -39 31 C-40.61829837 22.90850814 -40.98705815 17.26852422 -36.6015625 10.17578125 C-27.76761585 -1.82545846 -13.74331162 -4.67857417 0 0 Z M-21 3 C-21 3.66 -21 4.32 -21 5 C-21.7425 5.2475 -22.485 5.495 -23.25 5.75 C-27.08087166 7.4913053 -29.28304223 9.48385274 -31.08984375 13.3046875 C-33.09269208 19.23586926 -32.95123638 25.73270151 -30.3125 31.4375 C-27.22239331 36.750315 -22.66511507 39.77838625 -17 42 C-14.12220544 42.23208021 -11.82008362 42.28624909 -9 42 C-7.97132812 41.89558594 -7.97132812 41.89558594 -6.921875 41.7890625 C-1.95016247 40.93514241 0.76938988 38.98672636 3.8125 34.984375 C7.79628791 28.32725573 7.88260419 20.1723107 6.3125 12.75 C4.37208645 8.6843716 1.85134248 5.9761624 -2.1484375 3.8671875 C-5.88853015 2.72978946 -9.44698349 2.7851846 -13.3125 2.875 C-14.42334961 2.88853516 -14.42334961 2.88853516 -15.55664062 2.90234375 C-17.37123467 2.92575787 -19.18566071 2.96162385 -21 3 Z " fill="#4B8BB6" transform="translate(41,29)"/>
<path d="M0 0 C8.25991334 -0.0234421 16.51981217 -0.04107404 24.77975082 -0.05181217 C28.61750231 -0.05697272 32.45523061 -0.06394178 36.29296875 -0.07543945 C52.88740998 -0.12389418 69.43390416 -0.1313618 86 1 C85.01 1.66 84.02 2.32 83 3 C82.63637182 5.20725073 82.63637182 5.20725073 82.8125 7.625 C82.83957031 8.44226563 82.86664063 9.25953125 82.89453125 10.1015625 C82.94673828 11.04128906 82.94673828 11.04128906 83 12 C82.01 12 81.02 12 80 12 C80 11.01 80 10.02 80 9 C79.01 9 78.02 9 77 9 C76.67 9.99 76.34 10.98 76 12 C75.34 12 74.68 12 74 12 C74 9.69 74 7.38 74 5 C74.99 4.67 75.98 4.34 77 4 C77 3.34 77 2.68 77 2 C71.06 2 65.12 2 59 2 C59.99 3.32 60.98 4.64 62 6 C62.1875 9.25 62.1875 9.25 62 12 C56 12 50 12 44 12 C44 10.68 44 9.36 44 8 C43.34 8 42.68 8 42 8 C42 9.32 42 10.64 42 12 C38.37 12 34.74 12 31 12 C31 9.03 31 6.06 31 3 C28.69 2.67 26.38 2.34 24 2 C24.33 2.53625 24.66 3.0725 25 3.625 C26 6 26 6 26 12 C17.09 12 8.18 12 -1 12 C-1 3 -1 3 0 0 Z " fill="#E3E4E3" transform="translate(72,65)"/>
<path d="M0 0 C1.65 0 3.3 0 5 0 C5 1.98 5 3.96 5 6 C5.99 5.34 6.98 4.68 8 4 C13.97208982 3.30325619 16.92421357 4.02751945 21.65234375 7.7109375 C23.50743175 9.4853695 23.98177606 10.59615738 24.09765625 13.1640625 C24.08605469 13.97617187 24.07445313 14.78828125 24.0625 15.625 C24.05347656 16.44226563 24.04445313 17.25953125 24.03515625 18.1015625 C24.02355469 18.72804688 24.01195313 19.35453125 24 20 C23.34 20 22.68 20 22 20 C21.773125 20.598125 21.54625 21.19625 21.3125 21.8125 C19.59193332 24.68011113 18.03468112 25.62059949 15 27 C10.6119696 27.4477582 9.05989745 27.02994873 5 25 C5 31.93 5 38.86 5 46 C3.35 46 1.7 46 0 46 C0 30.82 0 15.64 0 0 Z " fill="#689DCE" transform="translate(61,31)"/>
<path d="M0 0 C2.31 0 4.62 0 7 0 C7 9.9 7 19.8 7 30 C4.69 30 2.38 30 0 30 C-0.33 24.39 -0.66 18.78 -1 13 C-1.66 13.66 -2.32 14.32 -3 15 C-4.32 15 -5.64 15 -7 15 C-7 18.3 -7 21.6 -7 25 C-5.68 25 -4.36 25 -3 25 C-3 26.98 -3 28.96 -3 31 C-5.64 31 -8.28 31 -11 31 C-11.33 29.68 -11.66 28.36 -12 27 C-12.66 27 -13.32 27 -14 27 C-14 22.38 -14 17.76 -14 13 C-15.32 13 -16.64 13 -18 13 C-17.625 10.5625 -17.625 10.5625 -17 8 C-16.34 7.67 -15.68 7.34 -15 7 C-14.34444881 4.47266765 -14.34444881 4.47266765 -14 2 C-11.69 2 -9.38 2 -7 2 C-7 3.65 -7 5.3 -7 7 C-5.35 6.67 -3.7 6.34 -2 6 C-1.34 4.02 -0.68 2.04 0 0 Z " fill="#D2E9F5" transform="translate(104,31)"/>
<path d="M0 0 C1.04027344 -0.01933594 2.08054688 -0.03867187 3.15234375 -0.05859375 C6.71127965 0.54809734 7.83492766 1.66207924 10.0625 4.4375 C11.0625 6.4375 11.0625 6.4375 11.0625 13.4375 C6.1125 13.4375 1.1625 13.4375 -3.9375 13.4375 C-3.6075 14.4275 -3.2775 15.4175 -2.9375 16.4375 C1.0225 16.4375 4.9825 16.4375 9.0625 16.4375 C9.3925 17.4275 9.7225 18.4175 10.0625 19.4375 C9.4025 20.4275 8.7425 21.4175 8.0625 22.4375 C3.20705303 23.29200567 -2.40546183 23.71859074 -6.90625 21.44140625 C-9.85442369 18.41610011 -10.22452494 15.25579759 -10.3125 11.25 C-10.16996705 7.68119433 -9.88812326 4.76213897 -7.74609375 1.77734375 C-5.15963449 -0.1387589 -3.18683696 0.00393923 0 0 Z " fill="#8BB5DA" transform="translate(242.9375,38.5625)"/>
<path d="M0 0 C4.20315559 2.5444194 4.20315559 2.5444194 6 5 C6.71944461 8.14085621 6.57206585 11.11144312 6.375 14.3125 C6.34792969 15.14845703 6.32085937 15.98441406 6.29296875 16.84570312 C6.22259563 18.89825247 6.11498322 20.94946591 6 23 C0.39 23 -5.22 23 -11 23 C-11 22.34 -11 21.68 -11 21 C-11.99 20.67 -12.98 20.34 -14 20 C-13.125 13.25 -13.125 13.25 -12 11 C-9.11788698 10.03929566 -7.30149956 9.89418117 -4.3125 9.9375 C-3.10013672 9.95103516 -3.10013672 9.95103516 -1.86328125 9.96484375 C-0.94095703 9.98224609 -0.94095703 9.98224609 0 10 C-0.33 9.01 -0.66 8.02 -1 7 C-4.63 7 -8.26 7 -12 7 C-11.1875 4.0625 -11.1875 4.0625 -10 1 C-6.34711807 -0.21762731 -3.84245864 -0.39075851 0 0 Z " fill="#4378AC" transform="translate(151,38)"/>
<path d="M0 0 C0.33 0 0.66 0 1 0 C1 31.68 1 63.36 1 96 C0.67 96 0.34 96 0 96 C-0.495 86.595 -0.495 86.595 -1 77 C-5.62 77 -10.24 77 -15 77 C-15 75.68 -15 74.36 -15 73 C-15.66 73 -16.32 73 -17 73 C-17 74.32 -17 75.64 -17 77 C-17.66 77 -18.32 77 -19 77 C-19.33 76.34 -19.66 75.68 -20 75 C-20 75.66 -20 76.32 -20 77 C-20.99 77 -21.98 77 -23 77 C-23 75.68 -23 74.36 -23 73 C-24.32 73 -25.64 73 -27 73 C-27 74.32 -27 75.64 -27 77 C-27.66 77 -28.32 77 -29 77 C-29.25 70.375 -29.25 70.375 -27 67 C-18.09 67 -9.18 67 0 67 C0 44.89 0 22.78 0 0 Z " fill="#838383" transform="translate(282,0)"/>
<path d="M0 0 C-0.99 0.66 -1.98 1.32 -3 2 C-2.34 2.66 -1.68 3.32 -1 4 C-7.6 3.67 -14.2 3.34 -21 3 C-21 3.66 -21 4.32 -21 5 C-21.928125 5.598125 -22.85625 6.19625 -23.8125 6.8125 C-27.04073902 9.02795815 -28.2793158 10.5586316 -30 14 C-30.33 14.66 -30.66 15.32 -31 16 C-31.09657872 17.7895469 -31.12980468 19.58285534 -31.125 21.375 C-31.12757812 22.33148438 -31.13015625 23.28796875 -31.1328125 24.2734375 C-31.01551878 26.68140854 -30.68675951 28.69990068 -30 31 C-30.66 31 -31.32 31 -32 31 C-32.33 31.99 -32.66 32.98 -33 34 C-33.66 33.67 -34.32 33.34 -35 33 C-35.33 33.66 -35.66 34.32 -36 35 C-36.33 33.68 -36.66 32.36 -37 31 C-37.66 31 -38.32 31 -39 31 C-40.61829837 22.90850814 -40.98705815 17.26852422 -36.6015625 10.17578125 C-27.76761585 -1.82545846 -13.74331162 -4.67857417 0 0 Z " fill="#578EC3" transform="translate(41,29)"/>
<path d="M0 0 C1.98 0 3.96 0 6 0 C6.33 4.62 6.66 9.24 7 14 C8.32 12.68 9.64 11.36 11 10 C11.66 10 12.32 10 13 10 C13 9.34 13 8.68 13 8 C15.31 8 17.62 8 20 8 C19 11 19 11 16.4375 12.8125 C13.64725477 14.82010187 13.64725477 14.82010187 13.6875 18.25 C13.790625 19.1575 13.89375 20.065 14 21 C14.66 21 15.32 21 16 21 C20 27.75 20 27.75 20 30 C17.3125 30.5 17.3125 30.5 14 30 C11.91867974 27.54759163 10.44509904 24.8646211 9 22 C8.01 22.33 7.02 22.66 6 23 C5.67 25.31 5.34 27.62 5 30 C3.35 30 1.7 30 0 30 C0 20.1 0 10.2 0 0 Z " fill="#4B8CC5" transform="translate(259,31)"/>
<path d="M0 0 C7.26 0 14.52 0 22 0 C22 1.65 22 3.3 22 5 C19.36 5 16.72 5 14 5 C14 15.23 14 25.46 14 36 C12.02 36 10.04 36 8 36 C8 25.77 8 15.54 8 5 C5.36 5 2.72 5 0 5 C0 3.35 0 1.7 0 0 Z " fill="#6AA2D5" transform="translate(214,25)"/>
<path d="M0 0 C4 1 4 1 6 2 C5.9278125 2.69867188 5.855625 3.39734375 5.78125 4.1171875 C5.6884375 5.02726562 5.595625 5.93734375 5.5 6.875 C5.4071875 7.77992187 5.314375 8.68484375 5.21875 9.6171875 C4.96952705 11.93313211 4.96952705 11.93313211 5 14 C6.45817797 14.16802051 7.9165484 14.33437143 9.375 14.5 C10.18710938 14.5928125 10.99921875 14.685625 11.8359375 14.78125 C13.96912825 15.03352351 13.96912825 15.03352351 16 15 C16.09087891 13.95199219 16.09087891 13.95199219 16.18359375 12.8828125 C16.26738281 11.97273438 16.35117188 11.06265625 16.4375 10.125 C16.51871094 9.22007813 16.59992188 8.31515625 16.68359375 7.3828125 C17 5 17 5 18 3 C18.99 3.33 19.98 3.66 21 4 C21.10841951 5.91541138 21.18578079 7.83259773 21.25 9.75 C21.29640625 10.81734375 21.3428125 11.8846875 21.390625 12.984375 C21 16 21 16 19.265625 18.3359375 C16.82676718 20.12723652 15.48299168 20.61960688 12.5 20.875 C11.7471875 20.95492187 10.994375 21.03484375 10.21875 21.1171875 C8 21 8 21 4 19 C4 25.93 4 32.86 4 40 C2.68 40 1.36 40 0 40 C0 26.8 0 13.6 0 0 Z " fill="#4179B0" transform="translate(62,37)"/>
<path d="M0 0 C7.59 0 15.18 0 23 0 C22.67 1.32 22.34 2.64 22 4 C23.65 4 25.3 4 27 4 C27 5.98 27 7.96 27 10 C20.73 10 14.46 10 8 10 C8 8.68 8 7.36 8 6 C7.01 6 6.02 6 5 6 C5 7.32 5 8.64 5 10 C4.34 10 3.68 10 3 10 C3 8.68 3 7.36 3 6 C2.34 6 1.68 6 1 6 C1 7.32 1 8.64 1 10 C-1.97 10 -4.94 10 -8 10 C-8.38218767 8.34385343 -8.71395102 6.67542976 -9 5 C-7.03177114 3.03177114 -3.65191291 3.33751619 -1 3 C-0.67 2.01 -0.34 1.02 0 0 Z " fill="#C4C4C4" transform="translate(182,67)"/>
<path d="M0 0 C-0.99 0.66 -1.98 1.32 -3 2 C-3.36362818 4.20725073 -3.36362818 4.20725073 -3.1875 6.625 C-3.16042969 7.44226563 -3.13335937 8.25953125 -3.10546875 9.1015625 C-3.05326172 10.04128906 -3.05326172 10.04128906 -3 11 C-3.99 11 -4.98 11 -6 11 C-6 10.01 -6 9.02 -6 8 C-6.99 8 -7.98 8 -9 8 C-9.33 8.99 -9.66 9.98 -10 11 C-10.66 11 -11.32 11 -12 11 C-12 8.69 -12 6.38 -12 4 C-11.01 3.67 -10.02 3.34 -9 3 C-9 2.34 -9 1.68 -9 1 C-14.94 1 -20.88 1 -27 1 C-26.01 2.32 -25.02 3.64 -24 5 C-23.8125 8.25 -23.8125 8.25 -24 11 C-30 11 -36 11 -42 11 C-42 9.68 -42 8.36 -42 7 C-42.66 7 -43.32 7 -44 7 C-44 8.32 -44 9.64 -44 11 C-44.66 11 -45.32 11 -46 11 C-46 9.02 -46 7.04 -46 5 C-44.35 5 -42.7 5 -41 5 C-40.67 3.68 -40.34 2.36 -40 1 C-27.23153131 -2.60449595 -13.04738481 -0.78156706 0 0 Z " fill="#E5E5E4" transform="translate(158,66)"/>
<path d="M0 0 C-2.13402954 1.65980075 -4.17456057 3.09366665 -6.5625 4.375 C-9.36250538 6.24167025 -10.3610185 8.11227069 -12 11 C-12.66 11 -13.32 11 -14 11 C-14.33 12.98 -14.66 14.96 -15 17 C-15.66 17 -16.32 17 -17 17 C-17.33 19.97 -17.66 22.94 -18 26 C-18.66 26 -19.32 26 -20 26 C-19.979375 27.0725 -19.95875 28.145 -19.9375 29.25 C-19.9857984 32.14790424 -20.13155885 34.28612141 -21 37 C-22.98 37 -24.96 37 -27 37 C-27 36.34 -27 35.68 -27 35 C-27.66 35 -28.32 35 -29 35 C-30.03004293 32.21142 -31.04930997 29.41969712 -32.0625 26.625 C-32.35705078 25.8309375 -32.65160156 25.036875 -32.95507812 24.21875 C-33.22900391 23.45820312 -33.50292969 22.69765625 -33.78515625 21.9140625 C-34.04176025 21.2123291 -34.29836426 20.5105957 -34.56274414 19.78759766 C-35 18 -35 18 -34 16 C-33.05937158 17.22677428 -32.12265768 18.45655035 -31.1875 19.6875 C-30.66542969 20.37199219 -30.14335938 21.05648437 -29.60546875 21.76171875 C-27.93867793 24.08549281 -26.47132451 26.54779248 -25 29 C-23.35 24.05 -21.7 19.1 -20 14 C-19.34 14 -18.68 14 -18 14 C-17.979375 13.154375 -17.95875 12.30875 -17.9375 11.4375 C-16.64009251 6.6803392 -13.81740214 4.02558292 -10 1 C-6.52674819 -0.1577506 -3.63932552 -0.06866652 0 0 Z " fill="#538ECB" transform="translate(149,24)"/>
<path d="M0 0 C0 0.66 0 1.32 0 2 C-0.969375 2.12375 -1.93875 2.2475 -2.9375 2.375 C-3.948125 2.58125 -4.95875 2.7875 -6 3 C-6.33 3.66 -6.66 4.32 -7 5 C-7.66 5 -8.32 5 -9 5 C-9 6.32 -9 7.64 -9 9 C-5.37 9 -1.74 9 2 9 C2 7.02 2 5.04 2 3 C4.475 3.495 4.475 3.495 7 4 C7 6.64 7 9.28 7 12 C2.05 12 -2.9 12 -8 12 C-7.67 13.65 -7.34 15.3 -7 17 C-3.04 16.67 0.92 16.34 5 16 C5 16.99 5 17.98 5 19 C4.34 19 3.68 19 3 19 C3 19.66 3 20.32 3 21 C1.08458862 21.10841951 -0.83259773 21.18578079 -2.75 21.25 C-4.35101563 21.31960937 -4.35101563 21.31960937 -5.984375 21.390625 C-9 21 -9 21 -11.328125 19.171875 C-14.34386631 15.25422975 -14.24848347 11.8040137 -14 7 C-13.22945065 4.11043995 -12.70506322 2.56947414 -10.375 0.6875 C-6.86233535 -0.32932398 -3.65099493 -0.12169983 0 0 Z " fill="#4076AA" transform="translate(210,40)"/>
<path d="M0 0 C1.65 0 3.3 0 5 0 C5.06058594 1.07121094 5.12117187 2.14242187 5.18359375 3.24609375 C5.26798537 4.64324391 5.35263406 6.04037857 5.4375 7.4375 C5.47681641 8.14455078 5.51613281 8.85160156 5.55664062 9.58007812 C5.47624438 13.08690419 5.47624438 13.08690419 7 16 C8.98 16 10.96 16 13 16 C13.33 10.72 13.66 5.44 14 0 C15.65 0 17.3 0 19 0 C19 6.93 19 13.86 19 21 C5.66853933 21.37031835 5.66853933 21.37031835 2.609375 19.67578125 C-0.76605443 16.16107439 -0.11775515 11.86467458 -0.0625 7.3125 C-0.05798828 6.61060547 -0.05347656 5.90871094 -0.04882812 5.18554688 C-0.03706927 3.45699462 -0.01913454 1.72848635 0 0 Z " fill="#5D90BF" transform="translate(172,40)"/>
<path d="M0 0 C1.98 0 3.96 0 6 0 C6 1.65 6 3.3 6 5 C7.65 5 9.3 5 11 5 C11 6.65 11 8.3 11 10 C9.35 10 7.7 10 6 10 C6 14.29 6 18.58 6 23 C7.32 23 8.64 23 10 23 C10 24.32 10 25.64 10 27 C4.25 27.125 4.25 27.125 2 26 C2 25.34 2 24.68 2 24 C1.34 24 0.68 24 0 24 C0 19.38 0 14.76 0 10 C-1.32 10 -2.64 10 -4 10 C-3.625 7.5625 -3.625 7.5625 -3 5 C-2.34 4.67 -1.68 4.34 -1 4 C-0.34786708 1.97536745 -0.34786708 1.97536745 0 0 Z " fill="#4880B3" transform="translate(90,34)"/>
<path d="M0 0 C2.24940295 -0.08119503 4.49964871 -0.13927819 6.75 -0.1875 C8.00296875 -0.22230469 9.2559375 -0.25710937 10.546875 -0.29296875 C14.17080607 0.01449146 15.60653005 0.29018614 18 3 C18.42578125 5.19140625 18.42578125 5.19140625 18.3125 7.5625 C18.28800781 8.34753906 18.26351562 9.13257813 18.23828125 9.94140625 C18 12 18 12 17 14 C15.68 14 14.36 14 13 14 C13 14.66 13 15.32 13 16 C13.66 16 14.32 16 15 16 C15.3125 18.3125 15.3125 18.3125 15 21 C11.21669117 24.32472595 7.88424492 24.28730852 3 24 C2.67 23.34 2.34 22.68 2 22 C5.3 22 8.6 22 12 22 C12 21.34 12 20.68 12 20 C12.66 20 13.32 20 14 20 C14 19.01 14 18.02 14 17 C13.01 17.33 12.02 17.66 11 18 C9.43881572 18.06740865 7.8749748 18.08514456 6.3125 18.0625 C5.10013672 18.04896484 5.10013672 18.04896484 3.86328125 18.03515625 C3.24839844 18.02355469 2.63351563 18.01195313 2 18 C1.67 16.35 1.34 14.7 1 13 C5.95 13 10.9 13 16 13 C15.67 10.36 15.34 7.72 15 5 C13.68 4.67 12.36 4.34 11 4 C11 5.98 11 7.96 11 10 C7.37 10 3.74 10 0 10 C0 8.68 0 7.36 0 6 C0.66 6 1.32 6 2 6 C2.33 5.01 2.66 4.02 3 3 C4.98 3 6.96 3 9 3 C9 2.34 9 1.68 9 1 C5.7 1.33 2.4 1.66 -1 2 C-0.67 1.34 -0.34 0.68 0 0 Z " fill="#B8D4E9" transform="translate(201,39)"/>
<path d="M0 0 C1.98 0 3.96 0 6 0 C6 10.23 6 20.46 6 31 C4.02 31 2.04 31 0 31 C0 20.77 0 10.54 0 0 Z " fill="#86ADD4" transform="translate(161,30)"/>
<path d="M0 0 C4.20315559 2.5444194 4.20315559 2.5444194 6 5 C6.71944461 8.14085621 6.57206585 11.11144312 6.375 14.3125 C6.34792969 15.14845703 6.32085937 15.98441406 6.29296875 16.84570312 C6.22259563 18.89825247 6.11498322 20.94946591 6 23 C4.06166004 22.91284983 2.1242571 22.80467036 0.1875 22.6875 C-0.89144531 22.62949219 -1.97039062 22.57148437 -3.08203125 22.51171875 C-6 22 -6 22 -7.90625 20.625 C-9 19 -9 19 -8.6875 16.3125 C-8.460625 15.549375 -8.23375 14.78625 -8 14 C-5.36 13.67 -2.72 13.34 0 13 C0 15.64 0 18.28 0 21 C1.32 20.67 2.64 20.34 4 20 C4 15.38 4 10.76 4 6 C2.68 5.34 1.36 4.68 0 4 C-0.33 4.99 -0.66 5.98 -1 7 C-4.63 7 -8.26 7 -12 7 C-11.1875 4.0625 -11.1875 4.0625 -10 1 C-6.34711807 -0.21762731 -3.84245864 -0.39075851 0 0 Z " fill="#7DA3CE" transform="translate(151,38)"/>
<path d="M0 0 C1.79244141 0.01740234 1.79244141 0.01740234 3.62109375 0.03515625 C5.41740234 0.04869141 5.41740234 0.04869141 7.25 0.0625 C8.17683594 0.07410156 9.10367188 0.08570312 10.05859375 0.09765625 C12.38081248 3.87126169 12.05859375 5.10965036 12.05859375 10.09765625 C6.11859375 10.09765625 0.17859375 10.09765625 -5.94140625 10.09765625 C-5.61140625 8.11765625 -5.28140625 6.13765625 -4.94140625 4.09765625 C-3.95140625 3.76765625 -2.96140625 3.43765625 -1.94140625 3.09765625 C-2.60140625 2.43765625 -3.26140625 1.77765625 -3.94140625 1.09765625 C-2.94140625 0.09765625 -2.94140625 0.09765625 0 0 Z " fill="#E8E9E9" transform="translate(85.94140625,66.90234375)"/>
<path d="M0 0 C1.91541138 -0.10841951 3.83259773 -0.18578079 5.75 -0.25 C7.35101563 -0.31960937 7.35101563 -0.31960937 8.984375 -0.390625 C12.67433406 0.08734897 13.72626726 1.13127178 16 4 C17 6 17 6 17 12 C11.72 12 6.44 12 1 12 C1.33 11.34 1.66 10.68 2 10 C5.3 10 8.6 10 12 10 C12 8.68 12 7.36 12 6 C10.54257537 5.91903197 9.08387193 5.86082226 7.625 5.8125 C6.40683594 5.76029297 6.40683594 5.76029297 5.1640625 5.70703125 C4.44992188 5.80371094 3.73578125 5.90039062 3 6 C2.01 7.485 2.01 7.485 1 9 C1 8.34 1 7.68 1 7 C0.34 7 -0.32 7 -1 7 C-1.33 7.99 -1.66 8.98 -2 10 C-3.39195915 5.82412255 -1.82323219 3.86525224 0 0 Z " fill="#5C8AB7" transform="translate(237,39)"/>
<path d="M0 0 C1.52491998 3.04983996 1.23562548 5.6423369 1 9 C-0.125 10.9375 -0.125 10.9375 -2 12 C-5.57953104 12.53312164 -7.33931496 12.40657541 -10.4375 10.5 C-12.78829768 6.73872372 -11.85594505 4.27972524 -11 0 C-7.17907588 -1.37553268 -3.91765889 -0.81309902 0 0 Z " fill="#DFEEF5" transform="translate(78,41)"/>
<path d="M0 0 C1.98 0 3.96 0 6 0 C6 7.26 6 14.52 6 22 C4.02 22 2.04 22 0 22 C0 14.74 0 7.48 0 0 Z " fill="#4877AA" transform="translate(105,39)"/>
<path d="M0 0 C1.02787125 0.00212242 1.02787125 0.00212242 2.07650757 0.00428772 C4.26719511 0.0098895 6.4577808 0.02244219 8.6484375 0.03515625 C10.13281102 0.04017103 11.61718615 0.04473397 13.1015625 0.04882812 C16.74222065 0.05985948 20.38281914 0.07712526 24.0234375 0.09765625 C24.0234375 0.42765625 24.0234375 0.75765625 24.0234375 1.09765625 C20.7234375 1.42765625 17.4234375 1.75765625 14.0234375 2.09765625 C14.3534375 2.75765625 14.6834375 3.41765625 15.0234375 4.09765625 C14.39695313 4.18402344 13.77046875 4.27039063 13.125 4.359375 C10.65560875 4.78392334 8.37986908 5.24038041 6.0234375 6.09765625 C4.34730563 8.56780097 4.34730563 8.56780097 4.0234375 11.09765625 C3.6934375 11.09765625 3.3634375 11.09765625 3.0234375 11.09765625 C2.6934375 9.11765625 2.3634375 7.13765625 2.0234375 5.09765625 C0.3528125 5.37609375 0.3528125 5.37609375 -1.3515625 5.66015625 C-4.9765625 6.09765625 -4.9765625 6.09765625 -6.9765625 5.09765625 C-6.9765625 4.43765625 -6.9765625 3.77765625 -6.9765625 3.09765625 C-7.6365625 3.09765625 -8.2965625 3.09765625 -8.9765625 3.09765625 C-8.9765625 2.43765625 -8.9765625 1.77765625 -8.9765625 1.09765625 C-6.00296801 -0.389141 -3.31357071 -0.0134698 0 0 Z " fill="#E0E0DF" transform="translate(167.9765625,65.90234375)"/>
<path d="M0 0 C3.96 0 7.92 0 12 0 C11.67 1.32 11.34 2.64 11 4 C12.65 4 14.3 4 16 4 C16 5.98 16 7.96 16 10 C10.72 10 5.44 10 0 10 C0 8.02 0 6.04 0 4 C0.66 4 1.32 4 2 4 C2 5.32 2 6.64 2 8 C2.66 7.34 3.32 6.68 4 6 C3.67958603 3.39719432 3.67958603 3.39719432 3 1 C2.01 0.67 1.02 0.34 0 0 Z " fill="#F9FAFA" transform="translate(193,67)"/>
<path d="M0 0 C5.2273031 0.37337879 8.55762766 2.11083006 12 6 C15.73479564 12.10016621 15.31054027 17.99559158 15 25 C14.01 25 13.02 25 12 25 C10.91681831 19.6787385 9.847126 14.36513131 9 9 C8.01 8.67 7.02 8.34 6 8 C3 4.55555556 3 4.55555556 3 2 C2.01 1.67 1.02 1.34 0 1 C0 0.67 0 0.34 0 0 Z " fill="#2B7FAE" transform="translate(37,30)"/>
<path d="M0 0 C1.98 0 3.96 0 6 0 C6 0.33 6 0.66 6 1 C4.35 1 2.7 1 1 1 C1.1409349 3.43787385 1.28754542 5.87517853 1.4375 8.3125 C1.47681641 9.00279297 1.51613281 9.69308594 1.55664062 10.40429688 C1.74927415 13.47161535 2.02322717 16.06968152 3 19 C6.2908539 21.1939026 7.1494598 21.20490753 10.9375 21.0625 C14.38015664 20.94307149 16.56935265 21.14233816 20 22 C20 15.07 20 8.14 20 1 C18.35 1 16.7 1 15 1 C15 0.67 15 0.34 15 0 C16.98 0 18.96 0 21 0 C21 7.92 21 15.84 21 24 C15.06 24.33 9.12 24.66 3 25 C-0.375 17.125 -0.375 17.125 -0.29296875 13.37890625 C-0.28330078 12.58935547 -0.27363281 11.79980469 -0.26367188 10.98632812 C-0.2259668 9.7865332 -0.2259668 9.7865332 -0.1875 8.5625 C-0.17396484 7.73556641 -0.16042969 6.90863281 -0.14648438 6.05664062 C-0.11146992 4.0374736 -0.05767562 2.01864682 0 0 Z " fill="#B5D3E6" transform="translate(171,39)"/>
<path d="M0 0 C0.66 0.33 1.32 0.66 2 1 C2 1.99 2 2.98 2 4 C2.515625 3.67 3.03125 3.34 3.5625 3 C6.81215644 1.66680762 9.52001247 1.80666736 13 2 C13.66 2.33 14.32 2.66 15 3 C15 4.32 15 5.64 15 7 C11.7 7.33 8.4 7.66 5 8 C4.67 10.31 4.34 12.62 4 15 C0.125 14.125 0.125 14.125 -1 13 C-1.09886353 11.37747508 -1.12971167 9.75052727 -1.125 8.125 C-1.12757813 7.24070312 -1.13015625 6.35640625 -1.1328125 5.4453125 C-1 3 -1 3 0 0 Z " fill="#518BBE" transform="translate(234,42)"/>
<path d="M0 0 C5.75 -0.125 5.75 -0.125 8 1 C8 1.66 8 2.32 8 3 C9.98 3 11.96 3 14 3 C14 4.98 14 6.96 14 9 C11.69 9 9.38 9 7 9 C7 8.01 7 7.02 7 6 C5.68 6 4.36 6 3 6 C3 6.99 3 7.98 3 9 C2.01 9 1.02 9 0 9 C0 6.03 0 3.06 0 0 Z " fill="#B1B1B1" transform="translate(237,68)"/>
<path d="M0 0 C5.28 0 10.56 0 16 0 C16 0.33 16 0.66 16 1 C11.05 1 6.1 1 1 1 C1.33 2.65 1.66 4.3 2 6 C7.94 5.505 7.94 5.505 14 5 C14 5.99 14 6.98 14 8 C13.34 8 12.68 8 12 8 C12 8.66 12 9.32 12 10 C10.08458862 10.10841951 8.16740227 10.18578079 6.25 10.25 C4.64898437 10.31960937 4.64898437 10.31960937 3.015625 10.390625 C-0.67488191 9.91258006 -1.74672802 8.89099047 -4 6 C-4.75 3.75 -4.75 3.75 -5 2 C-4.34 2 -3.68 2 -3 2 C-3 2.99 -3 3.98 -3 5 C-2.34 4.67 -1.68 4.34 -1 4 C-0.67 2.68 -0.34 1.36 0 0 Z " fill="#6E9EC8" transform="translate(201,51)"/>
<path d="M0 0 C3 1 3 1 4.6875 3.3125 C8.66341942 7.93316311 13.49656601 9.98360417 19.5 10.75 C21.2325 10.87375 21.2325 10.87375 23 11 C23 11.33 23 11.66 23 12 C20.62468606 12.0543965 18.25064117 12.09385864 15.875 12.125 C15.20984375 12.14175781 14.5446875 12.15851563 13.859375 12.17578125 C8.84817328 12.22491068 4.25194489 11.92724586 0.3203125 8.5625 C-3 4.22222222 -3 4.22222222 -3 2 C-2.34 2 -1.68 2 -1 2 C-0.67 1.34 -0.34 0.68 0 0 Z " fill="#4C7CA6" transform="translate(9,60)"/>
<path d="M0 0 C4.24404412 3.88026891 7.10917547 8.04254346 10 13 C10.66 11.02 11.32 9.04 12 7 C12.97140086 10.02213602 13.19248372 12.0187907 12 15 C11.01 15.66 10.02 16.32 9 17 C9 17.66 9 18.32 9 19 C11.99332739 18.0022242 12.94766315 17.2477975 15 15 C14.67 16.98 14.34 18.96 14 21 C12.02 21 10.04 21 8 21 C8 20.34 8 19.68 8 19 C7.34 19 6.68 19 6 19 C4.99619084 16.20964954 3.9968055 13.41785145 3 10.625 C2.57074219 9.43390625 2.57074219 9.43390625 2.1328125 8.21875 C1.86210938 7.45820312 1.59140625 6.69765625 1.3125 5.9140625 C1.06113281 5.2123291 0.80976562 4.5105957 0.55078125 3.78759766 C0 2 0 2 0 0 Z " fill="#6AA2D7" transform="translate(114,40)"/>
<path d="M0 0 C9.17286652 -0.63019694 9.17286652 -0.63019694 12.625 2 C13.07875 2.66 13.5325 3.32 14 4 C13.01 4 12.02 4 11 4 C11 5.98 11 7.96 11 10 C7.37 10 3.74 10 0 10 C0 8.68 0 7.36 0 6 C0.66 6 1.32 6 2 6 C2.33 5.01 2.66 4.02 3 3 C4.98 3 6.96 3 9 3 C9 2.34 9 1.68 9 1 C5.7 1.33 2.4 1.66 -1 2 C-0.67 1.34 -0.34 0.68 0 0 Z " fill="#6D99C3" transform="translate(201,39)"/>
<path d="M0 0 C1.98 0 3.96 0 6 0 C6.33 5.61 6.66 11.22 7 17 C6.01 17 5.02 17 4 17 C4 13.04 4 9.08 4 5 C3.01 5 2.02 5 1 5 C1 12.92 1 20.84 1 29 C1.99 29 2.98 29 4 29 C4 27.02 4 25.04 4 23 C4.33 23 4.66 23 5 23 C5 25.31 5 27.62 5 30 C3.35 30 1.7 30 0 30 C0 20.1 0 10.2 0 0 Z " fill="#5D93C9" transform="translate(259,31)"/>
<path d="M0 0 C0.66 0 1.32 0 2 0 C2.66 1.32 3.32 2.64 4 4 C4.33 3.67 4.66 3.34 5 3 C6.66617115 2.95936168 8.33388095 2.957279 10 3 C10.625 4.875 10.625 4.875 11 7 C10.34 7.66 9.68 8.32 9 9 C7.328451 8.69208308 5.66194453 8.35613097 4 8 C1.76832815 8.36856864 1.76832815 8.36856864 0 9 C0 7.68 0 6.36 0 5 C-0.66 5 -1.32 5 -2 5 C-1.67 6.32 -1.34 7.64 -1 9 C-1.99 9 -2.98 9 -4 9 C-4.33 6.69 -4.66 4.38 -5 2 C-3.35 2 -1.7 2 0 2 C0 1.34 0 0.68 0 0 Z " fill="#7D7D7D" transform="translate(215,68)"/>
<path d="M0 0 C0.33 0 0.66 0 1 0 C1.33 6.93 1.66 13.86 2 21 C2.33 16.71 2.66 12.42 3 8 C3.33 8 3.66 8 4 8 C4.33 14.93 4.66 21.86 5 29 C3.02 29.99 3.02 29.99 1 31 C0.01 31.66 -0.98 32.32 -2 33 C-3.32 32.34 -4.64 31.68 -6 31 C-6 30.34 -6 29.68 -6 29 C-4.02 29 -2.04 29 0 29 C0 19.43 0 9.86 0 0 Z " fill="#E5F6FC" transform="translate(167,32)"/>
<path d="M0 0 C0.33 0 0.66 0 1 0 C1 7.92 1 15.84 1 24 C-0.32 24 -1.64 24 -3 24 C-3.02903577 20.89585298 -3.0468107 17.79174091 -3.0625 14.6875 C-3.07087891 13.80642578 -3.07925781 12.92535156 -3.08789062 12.01757812 C-3.09111328 11.17001953 -3.09433594 10.32246094 -3.09765625 9.44921875 C-3.10289307 8.66893311 -3.10812988 7.88864746 -3.11352539 7.0847168 C-3 5 -3 5 -2 2 C-1.34 2 -0.68 2 0 2 C0 1.34 0 0.68 0 0 Z " fill="#3F79B2" transform="translate(226,37)"/>
<path d="M0 0 C-0.99 0.66 -1.98 1.32 -3 2 C-2.34 2.66 -1.68 3.32 -1 4 C-6.28 3.67 -11.56 3.34 -17 3 C-17 2.34 -17 1.68 -17 1 C-19.64 1 -22.28 1 -25 1 C-25 0.67 -25 0.34 -25 0 C-16.19898634 -2.33029203 -8.69292648 -2.95929412 0 0 Z " fill="#6294B8" transform="translate(41,29)"/>
<path d="M0 0 C0.33 0 0.66 0 1 0 C1 2.64 1 5.28 1 8 C-1.14576637 8.02685938 -3.29162645 8.04633088 -5.4375 8.0625 C-6.63246094 8.07410156 -7.82742187 8.08570312 -9.05859375 8.09765625 C-12 8 -12 8 -13 7 C-13 5.35 -13 3.7 -13 2 C-8.71 2 -4.42 2 0 2 C0 1.34 0 0.68 0 0 Z " fill="#A5A5A5" transform="translate(170,69)"/>
<path d="M0 0 C0.99 0 1.98 0 3 0 C3 7.92 3 15.84 3 24 C2.01 24 1.02 24 0 24 C-1.33257403 7.1070615 -1.33257403 7.1070615 0 0 Z " fill="#3A72AB" transform="translate(163,36)"/>
<path d="M0 0 C-3.13498292 1.85776765 -5.37471432 2.20140476 -9 2 C-9 2.66 -9 3.32 -9 4 C-8.01 4.33 -7.02 4.66 -6 5 C-6.33 6.32 -6.66 7.64 -7 9 C-4.03 9.495 -4.03 9.495 -1 10 C-0.67 10.99 -0.34 11.98 0 13 C-2.97 13 -5.94 13 -9 13 C-9 12.34 -9 11.68 -9 11 C-9.99 10.67 -10.98 10.34 -12 10 C-11.125 3.25 -11.125 3.25 -10 1 C-6.52674819 -0.1577506 -3.63932552 -0.06866652 0 0 Z " fill="#5C8EBE" transform="translate(149,48)"/>
<path d="M0 0 C0.33 0 0.66 0 1 0 C1 6.93 1 13.86 1 21 C-0.32 21 -1.64 21 -3 21 C-3.08132187 18.43685501 -3.14064175 15.87631582 -3.1875 13.3125 C-3.21263672 12.59126953 -3.23777344 11.87003906 -3.26367188 11.12695312 C-3.3264142 6.54676323 -2.84865767 3.63795829 0 0 Z " fill="#4D88C3" transform="translate(65,56)"/>
<path d="M0 0 C0.33 0 0.66 0 1 0 C1 6.6 1 13.2 1 20 C1.66 20 2.32 20 3 20 C3.33 18.02 3.66 16.04 4 14 C4.66 14.33 5.32 14.66 6 15 C5.67 17.97 5.34 20.94 5 24 C4.01 24.33 3.02 24.66 2 25 C1.7834375 26.7015625 1.7834375 26.7015625 1.5625 28.4375 C1 32 1 32 0 33 C-1.99958364 33.04080783 -4.00045254 33.04254356 -6 33 C-6 32.34 -6 31.68 -6 31 C-4.02 31 -2.04 31 0 31 C0 20.77 0 10.54 0 0 Z " fill="#CDE1F2" transform="translate(228,30)"/>
<path d="M0 0 C0.33 0 0.66 0 1 0 C1.33 3.63 1.66 7.26 2 11 C3.93395001 8.09907498 4.30131941 7.10325263 4.625 3.8125 C4.810625 1.9253125 4.810625 1.9253125 5 0 C5.33 0 5.66 0 6 0 C6 4.29 6 8.58 6 13 C7.32 13 8.64 13 10 13 C10 14.32 10 15.64 10 17 C4.25 17.125 4.25 17.125 2 16 C2 15.34 2 14.68 2 14 C1.34 14 0.68 14 0 14 C0 9.38 0 4.76 0 0 Z " fill="#73A0CB" transform="translate(90,44)"/>
<path d="M0 0 C1.32 0 2.64 0 4 0 C4 5.94 4 11.88 4 18 C3.01 18 2.02 18 1 18 C-0.2062252 14.38132441 -0.10816918 11.07493749 -0.0625 7.3125 C-0.05798828 6.61060547 -0.05347656 5.90871094 -0.04882812 5.18554688 C-0.03706927 3.45699462 -0.01913454 1.72848635 0 0 Z " fill="#4C81B9" transform="translate(172,40)"/>
<path d="M0 0 C1.32 0.33 2.64 0.66 4 1 C4 1.66 4 2.32 4 3 C8.62 3 13.24 3 18 3 C18 3.66 18 4.32 18 5 C19.65 4.67 21.3 4.34 23 4 C23 3.67 23 3.34 23 3 C24.65 3 26.3 3 28 3 C27.01 3.33 26.02 3.66 25 4 C25 4.66 25 5.32 25 6 C17.17029546 8.2267967 10.33532374 7.26014388 3 4 C3 3.34 3 2.68 3 2 C2.01 2 1.02 2 0 2 C0 1.34 0 0.68 0 0 Z " fill="#599AC6" transform="translate(13,70)"/>
<path d="M0 0 C1 2 1 2 0.0625 4.9375 C-2.12938445 12.03150441 -1.2819143 19.78923207 0 27 C-0.66 26.67 -1.32 26.34 -2 26 C-2 25.01 -2 24.02 -2 23 C-2.66 23 -3.32 23 -4 23 C-5.926174 13.36913002 -5.30375373 8.18293432 0 0 Z " fill="#82B0D9" transform="translate(6,37)"/>
<path d="M0 0 C2 3 2 3 2 5 C2.66 5 3.32 5 4 5 C8 11.75 8 11.75 8 14 C5.3125 14.5 5.3125 14.5 2 14 C-0.08132026 11.54759163 -1.55490096 8.8646211 -3 6 C-2.34 5.67 -1.68 5.34 -1 5 C-0.34444881 2.47266765 -0.34444881 2.47266765 0 0 Z " fill="#699ED3" transform="translate(271,47)"/>
<path d="M0 0 C1.37478516 0.01740234 1.37478516 0.01740234 2.77734375 0.03515625 C3.69644531 0.04417969 4.61554687 0.05320312 5.5625 0.0625 C6.27277344 0.07410156 6.98304687 0.08570312 7.71484375 0.09765625 C7.71484375 0.75765625 7.71484375 1.41765625 7.71484375 2.09765625 C6.39484375 2.09765625 5.07484375 2.09765625 3.71484375 2.09765625 C3.71484375 2.75765625 3.71484375 3.41765625 3.71484375 4.09765625 C1.72884038 5.45174945 -0.27333168 6.78223249 -2.28515625 8.09765625 C-3.65402576 9.39447999 -5.00208535 10.71588759 -6.28515625 12.09765625 C-6.61515625 10.11765625 -6.94515625 8.13765625 -7.28515625 6.09765625 C-6.29515625 6.09765625 -5.30515625 6.09765625 -4.28515625 6.09765625 C-4.14078125 5.29328125 -3.99640625 4.48890625 -3.84765625 3.66015625 C-3.07303504 0.13132628 -3.07303504 0.13132628 0 0 Z " fill="#4176A4" transform="translate(16.28515625,29.90234375)"/>
<path d="M0 0 C2.80362763 -0.22732116 4.46186517 -0.34081872 6.875 1.1875 C8 3 8 3 7.75 5.625 C7 8 7 8 6 9 C4.00041636 9.04080783 1.99954746 9.04254356 0 9 C0 6.03 0 3.06 0 0 Z " fill="#89898A" transform="translate(71,68)"/>
<path d="M0 0 C3.71599191 -0.20086443 4.77208445 -0.1519437 8 2 C8.1875 4.625 8.1875 4.625 8 7 C7.34 7 6.68 7 6 7 C6 7.66 6 8.32 6 9 C4.02 9 2.04 9 0 9 C0 6.03 0 3.06 0 0 Z " fill="#ADADAD" transform="translate(103,68)"/>
<path d="M0 0 C3.3 0.33 6.6 0.66 10 1 C10.66 1 11.32 1 12 1 C12 1.66 12 2.32 12 3 C9.03 3 6.06 3 3 3 C2.67 9.27 2.34 15.54 2 22 C-0.31 22 -2.62 22 -5 22 C-5 21.67 -5 21.34 -5 21 C-3.35 21 -1.7 21 0 21 C0 14.07 0 7.14 0 0 Z " fill="#CBE1F3" transform="translate(66,56)"/>
<path d="M0 0 C0.33 0 0.66 0 1 0 C1 2.64 1 5.28 1 8 C0.01 8.495 0.01 8.495 -1 9 C-0.67 10.65 -0.34 12.3 0 14 C-0.66 13.67 -1.32 13.34 -2 13 C-2 12.34 -2 11.68 -2 11 C-5.96 11 -9.92 11 -14 11 C-14.33 9.68 -14.66 8.36 -15 7 C-10.05 7 -5.1 7 0 7 C0 4.69 0 2.38 0 0 Z " fill="#D5E9F3" transform="translate(254,45)"/>
<path d="M0 0 C1.98 0 3.96 0 6 0 C6 7.26 6 14.52 6 22 C4.02 22 2.04 22 0 22 C0 14.74 0 7.48 0 0 Z M1 1 C1 7.27 1 13.54 1 20 C1.99 20 2.98 20 4 20 C5.00926479 15.84373632 5.10239579 11.95634906 5.0625 7.6875 C5.04896484 5.80611328 5.04896484 5.80611328 5.03515625 3.88671875 C5.02355469 2.93410156 5.01195313 1.98148438 5 1 C3.68 1 2.36 1 1 1 Z " fill="#7EA3C2" transform="translate(105,39)"/>
<path d="M0 0 C1.37478516 0.01740234 1.37478516 0.01740234 2.77734375 0.03515625 C3.69644531 0.04417969 4.61554688 0.05320312 5.5625 0.0625 C6.27277344 0.07410156 6.98304688 0.08570312 7.71484375 0.09765625 C7.38484375 2.07765625 7.05484375 4.05765625 6.71484375 6.09765625 C3.74484375 6.09765625 0.77484375 6.09765625 -2.28515625 6.09765625 C-2.66734392 4.44150968 -2.99910727 2.77308601 -3.28515625 1.09765625 C-2.28515625 0.09765625 -2.28515625 0.09765625 0 0 Z " fill="#A0A0A0" transform="translate(176.28515625,70.90234375)"/>
<path d="M0 0 C0.99 0 1.98 0 3 0 C3 3.96 3 7.92 3 12 C6.465 11.505 6.465 11.505 10 11 C9.67 11.99 9.34 12.98 9 14 C3.375 15.125 3.375 15.125 0 14 C0 9.38 0 4.76 0 0 Z " fill="#3B77B1" transform="translate(260,36)"/>
<path d="M0 0 C1.98 0 3.96 0 6 0 C6 1.65 6 3.3 6 5 C7.65 5 9.3 5 11 5 C11 6.65 11 8.3 11 10 C9.35 10 7.7 10 6 10 C7.32 9.67 8.64 9.34 10 9 C10 8.01 10 7.02 10 6 C4.44946714 6.74359673 4.44946714 6.74359673 -1 8 C-1 7.34 -1 6.68 -1 6 C-1.66 5.67 -2.32 5.34 -3 5 C-2.34 4.67 -1.68 4.34 -1 4 C-0.34786708 1.97536745 -0.34786708 1.97536745 0 0 Z " fill="#6397C7" transform="translate(90,34)"/>
<path d="M0 0 C2.56278699 -0.05420701 5.12441483 -0.09377007 7.6875 -0.125 C8.40873047 -0.14175781 9.12996094 -0.15851562 9.87304688 -0.17578125 C14.02508025 -0.21369936 17.3424503 -0.04931356 21 2 C21.99 3.485 21.99 3.485 23 5 C20.525 4.505 20.525 4.505 18 4 C18 3.34 18 2.68 18 2 C15.1038504 2.3097647 12.20810424 2.62271188 9.3125 2.9375 C8.08756836 3.06801758 8.08756836 3.06801758 6.83789062 3.20117188 C2.84549781 3.63758728 -1.07652852 4.11302376 -5 5 C-3.625 3.5 -3.625 3.5 -2 2 C-1.34 2 -0.68 2 0 2 C0 1.34 0 0.68 0 0 Z " fill="#C1DCE8" transform="translate(20,32)"/>
<path d="M0 0 C-1 3 -1 3 -2.6875 4.1875 C-5.54969093 5.19313465 -7.98827908 5.13689641 -11 5 C-11 4.34 -11 3.68 -11 3 C-15.62 3 -20.24 3 -25 3 C-25 2.67 -25 2.34 -25 2 C-20.05 2 -15.1 2 -10 2 C-10 1.34 -10 0.68 -10 0 C-6.33694766 -0.74926071 -3.57644848 -1.2380014 0 0 Z " fill="#4F8EBA" transform="translate(42,70)"/>
<path d="M0 0 C2.16874252 0.50603992 3.99967627 0.99983813 6 2 C6.59355614 4.64860427 6.74209269 7.29197322 7 10 C6.01 10 5.02 10 4 10 C4 8.68 4 7.36 4 6 C2.68 6 1.36 6 0 6 C0 7.32 0 8.64 0 10 C-0.66 10 -1.32 10 -2 10 C-2.25 3.375 -2.25 3.375 0 0 Z " fill="#B9B9B8" transform="translate(255,67)"/>
<path d="M0 0 C0.99 0 1.98 0 3 0 C4 2 4 2 4 8 C-1.28 8 -6.56 8 -12 8 C-11.67 7.34 -11.34 6.68 -11 6 C-7.7 6 -4.4 6 -1 6 C-0.67 4.02 -0.34 2.04 0 0 Z " fill="#477FB4" transform="translate(250,43)"/>
<path d="M0 0 C0.66 0 1.32 0 2 0 C2 3.96 2 7.92 2 12 C2.66 12 3.32 12 4 12 C4 13.98 4 15.96 4 18 C1 17 1 17 -0.17578125 14.796875 C-1.05814281 11.80270023 -1.23379637 9.3644829 -1.1875 6.25 C-1.17783203 4.80367187 -1.17783203 4.80367187 -1.16796875 3.328125 C-1 1 -1 1 0 0 Z " fill="#3C89D0" transform="translate(5,45)"/>
<path d="M0 0 C-2.13402954 1.65980075 -4.17456057 3.09366665 -6.5625 4.375 C-9.36106894 6.24071263 -10.47871986 8.03750711 -12 11 C-12.33 10.01 -12.66 9.02 -13 8 C-14.98 8.99 -14.98 8.99 -17 10 C-15.4411666 6.17377257 -13.04566418 3.74852621 -10 1 C-6.52674819 -0.1577506 -3.63932552 -0.06866652 0 0 Z " fill="#81ABD0" transform="translate(149,24)"/>
<path d="M0 0 C0.33 0.66 0.66 1.32 1 2 C0.67 2.66 0.34 3.32 0 4 C0.515625 3.835 1.03125 3.67 1.5625 3.5 C4.73363876 2.84951 7.77218334 2.9379266 11 3 C11.33 4.32 11.66 5.64 12 7 C11.14535156 7.04898438 10.29070312 7.09796875 9.41015625 7.1484375 C8.30542969 7.22320312 7.20070312 7.29796875 6.0625 7.375 C4.96035156 7.44460937 3.85820312 7.51421875 2.72265625 7.5859375 C1.82417969 7.72257812 0.92570313 7.85921875 0 8 C-0.33 8.66 -0.66 9.32 -1 10 C-1 9.01 -1 8.02 -1 7 C-0.34 7 0.32 7 1 7 C1 6.34 1 5.68 1 5 C0.34 5 -0.32 5 -1 5 C-0.67 3.35 -0.34 1.7 0 0 Z " fill="#C7E0EC" transform="translate(139,41)"/>
<path d="M0 0 C1.32 0.33 2.64 0.66 4 1 C5.09506492 4.28519475 5.09960608 6.73663415 5.0625 10.1875 C5.05347656 11.27417969 5.04445313 12.36085938 5.03515625 13.48046875 C5.02355469 14.31191406 5.01195312 15.14335938 5 16 C4.01 16 3.02 16 2 16 C1.34 10.72 0.68 5.44 0 0 Z " fill="#1C74AD" transform="translate(47,39)"/>
<path d="M0 0 C2.475 0.99 2.475 0.99 5 2 C5 1.34 5 0.68 5 0 C5.99 0 6.98 0 8 0 C8 2.64 8 5.28 8 8 C7.01 8 6.02 8 5 8 C5 7.01 5 6.02 5 5 C4.01 5 3.02 5 2 5 C1.67 5.99 1.34 6.98 1 8 C0.34 8 -0.32 8 -1 8 C-1.04241723 5.66705225 -1.04092937 3.33297433 -1 1 C-0.67 0.67 -0.34 0.34 0 0 Z " fill="#5A5A5A" transform="translate(147,69)"/>
<path d="M0 0 C-0.33 1.98 -0.66 3.96 -1 6 C-6.75 7.125 -6.75 7.125 -9 6 C-8.67 4.35 -8.34 2.7 -8 1 C-5.07175348 0.02391783 -3.04386724 -0.08226668 0 0 Z " fill="#A4C9E6" transform="translate(151,51)"/>
<path d="M0 0 C-0.875 3.875 -0.875 3.875 -2 5 C-3.68608966 5.07205511 -5.37500659 5.08386068 -7.0625 5.0625 C-7.98160156 5.05347656 -8.90070313 5.04445313 -9.84765625 5.03515625 C-10.55792969 5.02355469 -11.26820313 5.01195312 -12 5 C-12.33 3.68 -12.66 2.36 -13 1 C-11.39602723 0.83147753 -9.7918131 0.66525114 -8.1875 0.5 C-7.29417969 0.4071875 -6.40085938 0.314375 -5.48046875 0.21875 C-3 0 -3 0 0 0 Z " fill="#5995CD" transform="translate(251,56)"/>
<path d="M0 0 C1.32 0 2.64 0 4 0 C4 4.95 4 9.9 4 15 C1 13 1 13 0.3125 10.875 C-0.08477078 7.22010878 -0.06231163 3.67638613 0 0 Z " fill="#4877A1" transform="translate(187,40)"/>
<path d="M0 0 C6.75 -0.125 6.75 -0.125 9 1 C9 1.99 9 2.98 9 4 C8.01 4.33 7.02 4.66 6 5 C4.78130071 7.50447516 4.78130071 7.50447516 4 10 C3.67 10 3.34 10 3 10 C2.67 8.02 2.34 6.04 2 4 C1.01 4 0.02 4 -1 4 C-0.67 2.68 -0.34 1.36 0 0 Z " fill="#DFDFE0" transform="translate(168,67)"/>
<path d="M0 0 C0.99 0.66 1.98 1.32 3 2 C3.34057617 3.87939453 3.34057617 3.87939453 3.29296875 6.1328125 C3.28330078 6.93847656 3.27363281 7.74414062 3.26367188 8.57421875 C3.23853516 9.41597656 3.21339844 10.25773437 3.1875 11.125 C3.17396484 11.97449219 3.16042969 12.82398438 3.14648438 13.69921875 C3.11108219 15.79974837 3.05727401 17.89995293 3 20 C-0.96 19.67 -4.92 19.34 -9 19 C-8.01 18.67 -7.02 18.34 -6 18 C-6 17.34 -6 16.68 -6 16 C-5.34 16 -4.68 16 -4 16 C-3.67 15.34 -3.34 14.68 -3 14 C-3 15.32 -3 16.64 -3 18 C-1.68 17.67 -0.36 17.34 1 17 C1.02699725 14.72923158 1.04639453 12.45837179 1.0625 10.1875 C1.07410156 8.92292969 1.08570313 7.65835938 1.09765625 6.35546875 C1.16159116 3.00394763 1.16159116 3.00394763 0 0 Z " fill="#7BA5CA" transform="translate(154,41)"/>
<path d="M0 0 C0 0.99 0 1.98 0 3 C-0.33 3.33 -0.66 3.66 -1 4 C0.98 3.67 2.96 3.34 5 3 C4.3125 5.4375 4.3125 5.4375 3 8 C0.375 8.8125 0.375 8.8125 -2 9 C-2 9.66 -2 10.32 -2 11 C-2.66 10.67 -3.32 10.34 -4 10 C-3.67 9.34 -3.34 8.68 -3 8 C-3.66 8 -4.32 8 -5 8 C-4.45773019 4.20411134 -2.79872437 2.52788007 0 0 Z " fill="#4788B3" transform="translate(45,62)"/>
<path d="M0 0 C2.08218362 -0.10832169 4.16599129 -0.18573541 6.25 -0.25 C7.99023438 -0.31960937 7.99023438 -0.31960937 9.765625 -0.390625 C13.57666013 0.06964494 14.65511755 1.05148444 17 4 C16.360625 3.835 15.72125 3.67 15.0625 3.5 C8.98238675 2.50732845 3.03356501 2.76234564 -3 4 C-2.67 3.34 -2.34 2.68 -2 2 C-1.34 2 -0.68 2 0 2 C0 1.34 0 0.68 0 0 Z " fill="#CCE5EF" transform="translate(22,25)"/>
<path d="M0 0 C0.66 0 1.32 0 2 0 C2 2.97 2 5.94 2 9 C1.01 9 0.02 9 -1 9 C-1 7.68 -1 6.36 -1 5 C-1.66 5 -2.32 5 -3 5 C-3 6.32 -3 7.64 -3 9 C-3.66 9 -4.32 9 -5 9 C-5 7.02 -5 5.04 -5 3 C-3.35 3 -1.7 3 0 3 C0 2.01 0 1.02 0 0 Z " fill="#8F8F8F" transform="translate(117,68)"/>
<path d="M0 0 C2.01822917 0.06510417 4.03645833 0.13020833 6.0546875 0.1953125 C5.7246875 1.5153125 5.3946875 2.8353125 5.0546875 4.1953125 C3.4046875 4.1953125 1.7546875 4.1953125 0.0546875 4.1953125 C0.0546875 6.1753125 0.0546875 8.1553125 0.0546875 10.1953125 C-0.9353125 10.1953125 -1.9253125 10.1953125 -2.9453125 10.1953125 C-2.9453125 9.5353125 -2.9453125 8.8753125 -2.9453125 8.1953125 C-2.2853125 8.1953125 -1.6253125 8.1953125 -0.9453125 8.1953125 C-0.9453125 6.5453125 -0.9453125 4.8953125 -0.9453125 3.1953125 C-1.9353125 2.8653125 -2.9253125 2.5353125 -3.9453125 2.1953125 C-1.9453125 0.1953125 -1.9453125 0.1953125 0 0 Z " fill="#EEEEEE" transform="translate(111.9453125,66.8046875)"/>
<path d="M0 0 C0 0.99 0 1.98 0 3 C-2.64458379 4.32229189 -4.67761301 4.09677194 -7.625 4.0625 C-8.62789062 4.05347656 -9.63078125 4.04445313 -10.6640625 4.03515625 C-11.43492187 4.02355469 -12.20578125 4.01195312 -13 4 C-13.33 3.34 -13.66 2.68 -14 2 C-12.22978678 1.663389 -10.45880326 1.33082707 -8.6875 1 C-7.70136719 0.814375 -6.71523437 0.62875 -5.69921875 0.4375 C-3 0 -3 0 0 0 Z " fill="#518CC5" transform="translate(215,56)"/>
<path d="M0 0 C0.99 0.33 1.98 0.66 3 1 C2.34 2.0725 1.68 3.145 1 4.25 C-1.7739477 9.68068634 -1.35732583 15.04456946 -1 21 C-1.66 20.67 -2.32 20.34 -3 20 C-3.08112454 17.41603321 -3.14054748 14.83462432 -3.1875 12.25 C-3.21263672 11.52039062 -3.23777344 10.79078125 -3.26367188 10.0390625 C-3.30981636 6.65513396 -3.25324128 4.42141443 -1.48828125 1.484375 C-0.75158203 0.74960937 -0.75158203 0.74960937 0 0 Z " fill="#EBF9FD" transform="translate(3,37)"/>
<path d="M0 0 C0.66 0 1.32 0 2 0 C2 1.32 2 2.64 2 4 C2.66 3.34 3.32 2.68 4 2 C4 1.34 4 0.68 4 0 C5.32 0 6.64 0 8 0 C8 1.98 8 3.96 8 6 C5.36 6 2.72 6 0 6 C0 4.02 0 2.04 0 0 Z " fill="#727272" transform="translate(193,71)"/>
<path d="M0 0 C2.31 0.66 4.62 1.32 7 2 C5.68 2.33 4.36 2.66 3 3 C3 3.66 3 4.32 3 5 C5.97 5 8.94 5 12 5 C8.51195905 7.32536063 7.09859246 7.33457898 3 7 C0.625 6 0.625 6 -1 5 C-0.67 3.35 -0.34 1.7 0 0 Z " fill="#5F8CB7" transform="translate(67,51)"/>
<path d="M0 0 C6.75 -0.125 6.75 -0.125 9 1 C9 1.99 9 2.98 9 4 C5.7 4 2.4 4 -1 4 C-0.67 2.68 -0.34 1.36 0 0 Z " fill="#CAE4F5" transform="translate(240,44)"/>
<path d="M0 0 C0.66 0 1.32 0 2 0 C2.33 5.61 2.66 11.22 3 17 C2.01 17 1.02 17 0 17 C0 11.39 0 5.78 0 0 Z " fill="#89B3DB" transform="translate(263,31)"/>
<path d="M0 0 C0 0.66 0 1.32 0 2 C-0.94875 2.12375 -1.8975 2.2475 -2.875 2.375 C-6.08667191 2.71687177 -6.08667191 2.71687177 -8 5 C-10.125 4.625 -10.125 4.625 -12 4 C-12 5.32 -12 6.64 -12 8 C-12.66 7.67 -13.32 7.34 -14 7 C-12.56521739 2.45652174 -12.56521739 2.45652174 -10.375 0.6875 C-6.86233535 -0.32932398 -3.65099493 -0.12169983 0 0 Z " fill="#5085B6" transform="translate(210,40)"/>
<path d="M0 0 C1.98 0 3.96 0 6 0 C6 1.98 6 3.96 6 6 C4.02 6 2.04 6 0 6 C0 4.02 0 2.04 0 0 Z " fill="#7AA6CF" transform="translate(105,31)"/>
<path d="M0 0 C1.98 0 3.96 0 6 0 C6 1.98 6 3.96 6 6 C4.33388095 6.042721 2.66617115 6.04063832 1 6 C0 5 0 5 -0.0625 2.4375 C-0.041875 1.633125 -0.02125 0.82875 0 0 Z " fill="#737373" transform="translate(128,71)"/>
<path d="M0 0 C2.875 -0.1875 2.875 -0.1875 6 0 C6.66 0.99 7.32 1.98 8 3 C7.01 3 6.02 3 5 3 C5.33 4.98 5.66 6.96 6 9 C5.34 9 4.68 9 4 9 C4 7.35 4 5.7 4 4 C2.35 4 0.7 4 -1 4 C-0.67 2.68 -0.34 1.36 0 0 Z " fill="#EAECEB" transform="translate(205,67)"/>
<path d="M0 0 C0.33 0 0.66 0 1 0 C1 2.31 1 4.62 1 7 C1.99 7 2.98 7 4 7 C4 9.97 4 12.94 4 16 C3.01 16 2.02 16 1 16 C0.67 10.72 0.34 5.44 0 0 Z " fill="#4A82BE" transform="translate(162,44)"/>
<path d="M0 0 C0.66 0 1.32 0 2 0 C1.34 2.97 0.68 5.94 0 9 C-0.99 8.67 -1.98 8.34 -3 8 C-3.99 8.99 -4.98 9.98 -6 11 C-5.67 9.35 -5.34 7.7 -5 6 C-4.34 6 -3.68 6 -3 6 C-2.87625 5.38125 -2.7525 4.7625 -2.625 4.125 C-2 2 -2 2 0 0 Z " fill="#6A92B9" transform="translate(134,32)"/>
<path d="M0 0 C1.4540625 0.0309375 1.4540625 0.0309375 2.9375 0.0625 C2.2775 3.3625 1.6175 6.6625 0.9375 10.0625 C0.2775 10.0625 -0.3825 10.0625 -1.0625 10.0625 C-1.0625 8.0825 -1.0625 6.1025 -1.0625 4.0625 C-1.7225 4.0625 -2.3825 4.0625 -3.0625 4.0625 C-3.3925 3.0725 -3.7225 2.0825 -4.0625 1.0625 C-3.0625 0.0625 -3.0625 0.0625 0 0 Z " fill="#E9E9E9" transform="translate(252.0625,66.9375)"/>
<path d="M0 0 C0.66 1.32 1.32 2.64 2 4 C0.68 4 -0.64 4 -2 4 C-2.33 5.65 -2.66 7.3 -3 9 C-3.66 8.67 -4.32 8.34 -5 8 C-5.38218767 6.34385343 -5.71395102 4.67542976 -6 3 C-6.33 2.34 -6.66 1.68 -7 1 C-4.53721199 -0.231394 -2.7204945 -0.07159196 0 0 Z " fill="#EAE9E7" transform="translate(83,67)"/>
<path d="M0 0 C2.31 0 4.62 0 7 0 C7.33 1.32 7.66 2.64 8 4 C5.03 4 2.06 4 -1 4 C-0.67 2.68 -0.34 1.36 0 0 Z " fill="#CFE7F6" transform="translate(203,44)"/>
<path d="M0 0 C1.65 0 3.3 0 5 0 C5.625 1.875 5.625 1.875 6 4 C5.34 4.66 4.68 5.32 4 6 C2.68 6 1.36 6 0 6 C0 4.02 0 2.04 0 0 Z " fill="#7E7E7E" transform="translate(220,71)"/>
<path d="M0 0 C1.65 0 3.3 0 5 0 C5 1.98 5 3.96 5 6 C3.02 6 1.04 6 -1 6 C-0.67 4.02 -0.34 2.04 0 0 Z " fill="#707070" transform="translate(204,71)"/>
<path d="M0 0 C1.65 0.33 3.3 0.66 5 1 C5 2.65 5 4.3 5 6 C3.02 6 1.04 6 -1 6 C-0.67 4.02 -0.34 2.04 0 0 Z " fill="#6D6F70" transform="translate(81,71)"/>
<path d="M0 0 C1.98 0 3.96 0 6 0 C6 1.98 6 3.96 6 6 C4.02 6 2.04 6 0 6 C0 4.02 0 2.04 0 0 Z " fill="#7E7E7E" transform="translate(135,71)"/>
<path d="M0 0 C2.97 0 5.94 0 9 0 C8.67 1.32 8.34 2.64 8 4 C4.25 5.125 4.25 5.125 2 4 C2 3.34 2 2.68 2 2 C1.34 2 0.68 2 0 2 C0 1.34 0 0.68 0 0 Z " fill="#FAFAFA" transform="translate(159,67)"/>
<path d="M0 0 C1.98 0.99 1.98 0.99 4 2 C4 4.31 4 6.62 4 9 C2.68 9 1.36 9 0 9 C0 6.03 0 3.06 0 0 Z " fill="#5091CD" transform="translate(223,52)"/>
<path d="M0 0 C0.33 0 0.66 0 1 0 C1.12375 0.969375 1.2475 1.93875 1.375 2.9375 C1.684375 4.4534375 1.684375 4.4534375 2 6 C2.66 6.33 3.32 6.66 4 7 C3.67 9.31 3.34 11.62 3 14 C2.34 12.68 1.68 11.36 1 10 C0.67 10.66 0.34 11.32 0 12 C-0.66 11.67 -1.32 11.34 -2 11 C-1.34 7.37 -0.68 3.74 0 0 Z " fill="#4385B5" transform="translate(48,48)"/>
<path d="M0 0 C1.65 0 3.3 0 5 0 C5 1.98 5 3.96 5 6 C3.35 6 1.7 6 0 6 C0 4.02 0 2.04 0 0 Z " fill="#707070" transform="translate(93,71)"/>
<path d="M0 0 C1.65 0 3.3 0 5 0 C5 1.98 5 3.96 5 6 C3.35 6 1.7 6 0 6 C0 4.02 0 2.04 0 0 Z " fill="#696969" transform="translate(246,71)"/>
<path d="M0 0 C0 0.66 0 1.32 0 2 C-0.99 2.495 -0.99 2.495 -2 3 C-2 3.66 -2 4.32 -2 5 C-4.97 5 -7.94 5 -11 5 C-11 4.34 -11 3.68 -11 3 C-9.73160474 2.49384702 -8.46016898 1.99530901 -7.1875 1.5 C-6.12595703 1.08234375 -6.12595703 1.08234375 -5.04296875 0.65625 C-3 0 -3 0 0 0 Z " fill="#3C72A6" transform="translate(81,51)"/>
<path d="M0 0 C0.99 0 1.98 0 3 0 C3 3.3 3 6.6 3 10 C2.01 10 1.02 10 0 10 C0 6.7 0 3.4 0 0 Z " fill="#3E73A8" transform="translate(173,40)"/>
<path d="M0 0 C0.33 0 0.66 0 1 0 C1 1.98 1 3.96 1 6 C1.99 5.67 2.98 5.34 4 5 C4 3.68 4 2.36 4 1 C4.99 1 5.98 1 7 1 C7 2.65 7 4.3 7 6 C6.34 6 5.68 6 5 6 C5 6.66 5 7.32 5 8 C3.35 8 1.7 8 0 8 C0 5.36 0 2.72 0 0 Z " fill="#636363" transform="translate(104,69)"/>
<path d="M0 0 C0.99 0 1.98 0 3 0 C3.08096803 1.45742463 3.13917774 2.91612807 3.1875 4.375 C3.22230469 5.18710937 3.25710937 5.99921875 3.29296875 6.8359375 C3.19628906 7.55007812 3.09960938 8.26421875 3 9 C2.01 9.66 1.02 10.32 0 11 C0 7.37 0 3.74 0 0 Z " fill="#3F76A9" transform="translate(91,45)"/>
<path d="M0 0 C1.37478516 0.01740234 1.37478516 0.01740234 2.77734375 0.03515625 C3.69644531 0.04417969 4.61554687 0.05320312 5.5625 0.0625 C6.27277344 0.07410156 6.98304687 0.08570312 7.71484375 0.09765625 C7.71484375 0.75765625 7.71484375 1.41765625 7.71484375 2.09765625 C6.39484375 2.09765625 5.07484375 2.09765625 3.71484375 2.09765625 C3.71484375 2.75765625 3.71484375 3.41765625 3.71484375 4.09765625 C2.39484375 4.42765625 1.07484375 4.75765625 -0.28515625 5.09765625 C-0.61515625 4.10765625 -0.94515625 3.11765625 -1.28515625 2.09765625 C-1.94515625 1.76765625 -2.60515625 1.43765625 -3.28515625 1.09765625 C-2.28515625 0.09765625 -2.28515625 0.09765625 0 0 Z " fill="#527EA4" transform="translate(16.28515625,29.90234375)"/>
<path d="M0 0 C1.32 0 2.64 0 4 0 C4 1.98 4 3.96 4 6 C2.35 5.67 0.7 5.34 -1 5 C-0.67 3.35 -0.34 1.7 0 0 Z " fill="#656565" transform="translate(272,71)"/>
<path d="M0 0 C1.98 0 3.96 0 6 0 C6 1.98 6 3.96 6 6 C5.34 6 4.68 6 4 6 C4 4.68 4 3.36 4 2 C3.34 2 2.68 2 2 2 C2 3.32 2 4.64 2 6 C1.34 6 0.68 6 0 6 C0 4.02 0 2.04 0 0 Z " fill="#707070" transform="translate(263,71)"/>
<path d="M0 0 C1.98 0 3.96 0 6 0 C6 1.98 6 3.96 6 6 C5.34 6 4.68 6 4 6 C4 4.68 4 3.36 4 2 C3.34 2 2.68 2 2 2 C2 3.32 2 4.64 2 6 C1.34 6 0.68 6 0 6 C0 4.02 0 2.04 0 0 Z " fill="#6F6F6F" transform="translate(227,71)"/>
<path d="M0 0 C0 0.99 0 1.98 0 3 C-3.82989106 4.80230168 -6.78121808 5.19622241 -11 5 C-10.67 4.01 -10.34 3.02 -10 2 C-8.22265625 1.26953125 -8.22265625 1.26953125 -6.0625 0.8125 C-4.99708984 0.57466797 -4.99708984 0.57466797 -3.91015625 0.33203125 C-2 0 -2 0 0 0 Z " fill="#4989C4" transform="translate(189,55)"/>
<path d="M0 0 C0.66 0 1.32 0 2 0 C1.01 3.63 0.02 7.26 -1 11 C-2.32 9.68 -3.64 8.36 -5 7 C-4.01 6.67 -3.02 6.34 -2 6 C-1.855625 5.195625 -1.71125 4.39125 -1.5625 3.5625 C-1 1 -1 1 0 0 Z " fill="#D2EDF7" transform="translate(126,43)"/>
<path d="M0 0 C1.98 0 3.96 0 6 0 C6 1.65 6 3.3 6 5 C3.03 4.505 3.03 4.505 0 4 C0 2.68 0 1.36 0 0 Z " fill="#6DA3D3" transform="translate(90,34)"/>
<path d="M0 0 C1.32 0 2.64 0 4 0 C4 1.65 4 3.3 4 5 C3.01 5 2.02 5 1 5 C1 7.64 1 10.28 1 13 C0.67 13 0.34 13 0 13 C0 8.71 0 4.42 0 0 Z " fill="#5E93D1" transform="translate(162,31)"/>
<path d="M0 0 C3.3 0 6.6 0 10 0 C9.67 0.99 9.34 1.98 9 3 C3.375 4.125 3.375 4.125 0 3 C0 2.01 0 1.02 0 0 Z " fill="#3C7FBD" transform="translate(260,47)"/>
<path d="M0 0 C2.31 0 4.62 0 7 0 C6 3 6 3 3.9375 4.1875 C3.298125 4.455625 2.65875 4.72375 2 5 C2 4.34 2 3.68 2 3 C0.35 3.33 -1.3 3.66 -3 4 C-2.67 3.34 -2.34 2.68 -2 2 C-1.34 2 -0.68 2 0 2 C0 1.34 0 0.68 0 0 Z " fill="#7193B6" transform="translate(272,39)"/>
<path d="M0 0 C2.60527105 -0.10792837 5.20608311 -0.18724878 7.8125 -0.25 C8.55048828 -0.28351562 9.28847656 -0.31703125 10.04882812 -0.3515625 C12.20703125 -0.390625 12.20703125 -0.390625 16 0 C18.01171875 2.015625 18.01171875 2.015625 19 4 C16.525 3.505 16.525 3.505 14 3 C14 2.34 14 1.68 14 1 C9.05 1.33 4.1 1.66 -1 2 C-0.67 1.34 -0.34 0.68 0 0 Z " fill="#CDE7F3" transform="translate(24,33)"/>
<path d="M0 0 C0.33 0 0.66 0 1 0 C1 2.64 1 5.28 1 8 C-0.65 8 -2.3 8 -4 8 C-4 7.34 -4 6.68 -4 6 C-3.01 6 -2.02 6 -1 6 C-1 5.34 -1 4.68 -1 4 C-1.99 4 -2.98 4 -4 4 C-4 3.34 -4 2.68 -4 2 C-2.68 2 -1.36 2 0 2 C0 1.34 0 0.68 0 0 Z " fill="#565656" transform="translate(170,69)"/>
<path d="M0 0 C0.33 0.99 0.66 1.98 1 3 C-1.97 3 -4.94 3 -8 3 C-8 2.34 -8 1.68 -8 1 C-8.66 0.67 -9.32 0.34 -10 0 C-6.42355152 -1.2380014 -3.66305234 -0.74926071 0 0 Z " fill="#5F95C9" transform="translate(148,58)"/>
<path d="M0 0 C0.33 0 0.66 0 1 0 C1 2.64 1 5.28 1 8 C1.66 8 2.32 8 3 8 C3 9.98 3 11.96 3 14 C2.01 13.67 1.02 13.34 0 13 C-1.2171453 9.99371761 -0.98183704 7.41832431 -0.5625 4.25 C-0.46066406 3.45078125 -0.35882813 2.6515625 -0.25390625 1.828125 C-0.17011719 1.22484375 -0.08632812 0.6215625 0 0 Z " fill="#3A80C0" transform="translate(6,49)"/>
<path d="M0 0 C0.66 0.33 1.32 0.66 2 1 C1.67 3.97 1.34 6.94 1 10 C-0.32 10.33 -1.64 10.66 -3 11 C-3 9.35 -3 7.7 -3 6 C-2.34 6 -1.68 6 -1 6 C-0.67 4.02 -0.34 2.04 0 0 Z " fill="#D7EBF7" transform="translate(232,44)"/>
<path d="M0 0 C0 0.66 0 1.32 0 2 C-2.95481492 4.74375671 -3.77471908 5 -8 5 C-7.625 3.0625 -7.625 3.0625 -7 1 C-4.53721199 -0.231394 -2.7204945 -0.07159196 0 0 Z " fill="#477EB2" transform="translate(147,40)"/>
<path d="M0 0 C0.66 0 1.32 0 2 0 C4.10428384 5.12919186 4.21755666 9.5610835 4 15 C3.67 15 3.34 15 3 15 C2.86722656 14.36191406 2.73445313 13.72382812 2.59765625 13.06640625 C2.42105469 12.24011719 2.24445312 11.41382813 2.0625 10.5625 C1.88847656 9.73878906 1.71445312 8.91507813 1.53515625 8.06640625 C1.19247006 6.02338796 1.19247006 6.02338796 0 5 C-0.04063832 3.33382885 -0.042721 1.66611905 0 0 Z " fill="#AFD9EA" transform="translate(44,39)"/>
<path d="M0 0 C1.32 0 2.64 0 4 0 C4 1.98 4 3.96 4 6 C2.35 5.67 0.7 5.34 -1 5 C-0.67 3.35 -0.34 1.7 0 0 Z " fill="#5F5F5F" transform="translate(174,71)"/>
<path d="M0 0 C2.31 0 4.62 0 7 0 C6 2 6 2 4 2.75 C1.63752715 3.90165132 1.63752715 3.90165132 1.25 7.125 C1.1675 8.07375 1.085 9.0225 1 10 C0.67 10 0.34 10 0 10 C0 6.7 0 3.4 0 0 Z " fill="#EAFAFE" transform="translate(229,30)"/>
<path d="M0 0 C1.65 0 3.3 0 5 0 C4.67 1.98 4.34 3.96 4 6 C3.01 6 2.02 6 1 6 C0.67 4.02 0.34 2.04 0 0 Z " fill="#777777" transform="translate(121,71)"/>
<path d="M0 0 C-1 3 -1 3 -2.6875 4.1875 C-5.54969093 5.19313465 -7.98827908 5.13689641 -11 5 C-7.29318258 1.89428811 -4.9778821 0 0 0 Z " fill="#1B74A8" transform="translate(42,70)"/>
<path d="M0 0 C0.33 0.99 0.66 1.98 1 3 C4.71736641 3.34900558 4.71736641 3.34900558 7.8125 1.5 C8.204375 1.005 8.59625 0.51 9 0 C8.67 1.98 8.34 3.96 8 6 C6.02 6 4.04 6 2 6 C2 5.34 2 4.68 2 4 C1.34 4 0.68 4 0 4 C0 2.68 0 1.36 0 0 Z " fill="#7CA9D2" transform="translate(120,55)"/>
<path d="M0 0 C0.66 0.66 1.32 1.32 2 2 C2.99 1.67 3.98 1.34 5 1 C5 2.98 5 4.96 5 7 C1.125 6.125 1.125 6.125 0 5 C-0.04063832 3.33382885 -0.042721 1.66611905 0 0 Z " fill="#5193D1" transform="translate(233,50)"/>
<path d="M0 0 C2.64 0 5.28 0 8 0 C8 0.99 8 1.98 8 3 C5.36 3 2.72 3 0 3 C0 2.01 0 1.02 0 0 Z " fill="#EAFAFD" transform="translate(203,53)"/>
<path d="M0 0 C0.66 0 1.32 0 2 0 C2 1.32 2 2.64 2 4 C2.66 4 3.32 4 4 4 C4 3.01 4 2.02 4 1 C4.66 1 5.32 1 6 1 C5.67 2.32 5.34 3.64 5 5 C4.01 5 3.02 5 2 5 C2 5.66 2 6.32 2 7 C1.34 7 0.68 7 0 7 C0 4.69 0 2.38 0 0 Z " fill="#676767" transform="translate(238,69)"/>
<path d="M0 0 C0.99 0 1.98 0 3 0 C3 0.66 3 1.32 3 2 C4.65 2 6.3 2 8 2 C6.68 2.33 5.36 2.66 4 3 C4.33 3.99 4.66 4.98 5 6 C4.01 6.33 3.02 6.66 2 7 C2 5.68 2 4.36 2 3 C1.34 3 0.68 3 0 3 C0 2.01 0 1.02 0 0 Z " fill="#CECECE" transform="translate(193,68)"/>
<path d="M0 0 C0.66 0.33 1.32 0.66 2 1 C-0.10148204 4.98175544 -2.36905358 7.35039045 -6 10 C-5.75 7.625 -5.75 7.625 -5 5 C-3 3.875 -3 3.875 -1 3 C-0.67 2.01 -0.34 1.02 0 0 Z " fill="#D2EBF4" transform="translate(45,58)"/>
<path d="M0 0 C0.33 0.99 0.66 1.98 1 3 C1.99 3 2.98 3 4 3 C4 4.65 4 6.3 4 8 C2.68 8 1.36 8 0 8 C0 5.36 0 2.72 0 0 Z " fill="#4688C4" transform="translate(151,51)"/>
<path d="M0 0 C3.37462715 0.54723683 5.08235 1.0549 8 3 C8.29296875 5.1640625 8.29296875 5.1640625 8.1875 7.625 C8.16042969 8.44226562 8.13335937 9.25953125 8.10546875 10.1015625 C8.07066406 10.72804688 8.03585938 11.35453125 8 12 C7.67 12 7.34 12 7 12 C7 9.36 7 6.72 7 4 C6.401875 3.896875 5.80375 3.79375 5.1875 3.6875 C2.71756736 2.91123545 1.67748765 1.92911079 0 0 Z " fill="#D3EAF5" transform="translate(211,39)"/>
<path d="M0 0 C0.33 0 0.66 0 1 0 C1 3.63 1 7.26 1 11 C0.34 10.67 -0.32 10.34 -1 10 C-1.75 6.625 -1.75 6.625 -2 3 C-1.34 2.01 -0.68 1.02 0 0 Z " fill="#3973A6" transform="translate(189,43)"/>
<path d="M0 0 C0.99 0 1.98 0 3 0 C3.1875 2.8125 3.1875 2.8125 3 6 C2.01 6.99 1.02 7.98 0 9 C0 6.03 0 3.06 0 0 Z " fill="#3670A4" transform="translate(62,45)"/>
<path d="M0 0 C2.5 2.3125 2.5 2.3125 5 5 C5 5.99 5 6.98 5 8 C4.34 8.66 3.68 9.32 3 10 C2.01 6.7 1.02 3.4 0 0 Z " fill="#83A3B8" transform="translate(114,40)"/>
<path d="M0 0 C2.31 0 4.62 0 7 0 C7.33 0.99 7.66 1.98 8 3 C6.02 3.33 4.04 3.66 2 4 C2 3.01 2 2.02 2 1 C1.34 0.67 0.68 0.34 0 0 Z " fill="#FBFAF6" transform="translate(175,67)"/>
<path d="M0 0 C0.33 0 0.66 0 1 0 C1 1.98 1 3.96 1 6 C0.34 6 -0.32 6 -1 6 C-1.33 6.99 -1.66 7.98 -2 9 C-2.6875 6.75 -2.6875 6.75 -3 4 C-1.625 1.6875 -1.625 1.6875 0 0 Z " fill="#4676A7" transform="translate(131,39)"/>
<path d="M0 0 C1.32 0 2.64 0 4 0 C3.67 1.98 3.34 3.96 3 6 C2.01 6 1.02 6 0 6 C0 4.02 0 2.04 0 0 Z " fill="#8A8A8A" transform="translate(278,71)"/>
<path d="M0 0 C0.99 0 1.98 0 3 0 C3 2.64 3 5.28 3 8 C2.01 8 1.02 8 0 8 C-0.6875 6.1875 -0.6875 6.1875 -1 4 C0.4375 2.25 0.4375 2.25 2 1 C1.34 0.67 0.68 0.34 0 0 Z " fill="#8D8D8D" transform="translate(152,69)"/>
<path d="M0 0 C2.31 0 4.62 0 7 0 C7 1.32 7 2.64 7 4 C5.68 4 4.36 4 3 4 C3 3.34 3 2.68 3 2 C2.01 1.67 1.02 1.34 0 1 C0 0.67 0 0.34 0 0 Z " fill="#F6F5F1" transform="translate(242,67)"/>
<path d="M0 0 C0.99 0.33 1.98 0.66 3 1 C3.6875 3.0625 3.6875 3.0625 4 5 C1.525 4.01 1.525 4.01 -1 3 C-1 4.98 -1 6.96 -1 9 C-1.33 9 -1.66 9 -2 9 C-2.125 5.625 -2.125 5.625 -2 2 C-1.34 1.34 -0.68 0.68 0 0 Z " fill="#B9DDF2" transform="translate(266,52)"/>
<path d="M0 0 C1.32 1.32 2.64 2.64 4 4 C3.67 4.66 3.34 5.32 3 6 C2.34 5.67 1.68 5.34 1 5 C1.33 6.98 1.66 8.96 2 11 C-0.67927341 6.98108988 -0.15601248 4.75838077 0 0 Z " fill="#3184B8" transform="translate(46,34)"/>
<path d="M0 0 C0.99 0.33 1.98 0.66 3 1 C3 2.98 3 4.96 3 7 C2.01 6.67 1.02 6.34 0 6 C0 4.02 0 2.04 0 0 Z " fill="#727272" transform="translate(88,70)"/>
<path d="M0 0 C0.99 0 1.98 0 3 0 C3.33 2.31 3.66 4.62 4 7 C3.01 7 2.02 7 1 7 C0.67 4.69 0.34 2.38 0 0 Z " fill="#6E6E6E" transform="translate(210,70)"/>
<path d="M0 0 C3.3 0 6.6 0 10 0 C8.515 1.485 8.515 1.485 7 3 C4.69 2.34 2.38 1.68 0 1 C0 0.67 0 0.34 0 0 Z " fill="#C4E1F6" transform="translate(240,61)"/>
<path d="M0 0 C1.98 0 3.96 0 6 0 C5.67 0.99 5.34 1.98 5 3 C3.02 3 1.04 3 -1 3 C-0.67 2.01 -0.34 1.02 0 0 Z " fill="#EAFCFE" transform="translate(144,53)"/>
<path d="M0 0 C-0.33 1.32 -0.66 2.64 -1 4 C-2.65 4 -4.3 4 -6 4 C-5.67 3.01 -5.34 2.02 -5 1 C-3 0 -3 0 0 0 Z " fill="#4274A2" transform="translate(274,42)"/>
<path d="M0 0 C0.99 0 1.98 0 3 0 C3.33 0.99 3.66 1.98 4 3 C3.34 3 2.68 3 2 3 C2 3.99 2 4.98 2 6 C1.34 6 0.68 6 0 6 C-1.125 2.25 -1.125 2.25 0 0 Z " fill="#C6C6C6" transform="translate(201,71)"/>
<path d="M0 0 C0.66 0 1.32 0 2 0 C1.67 2.97 1.34 5.94 1 9 C0.67 7.68 0.34 6.36 0 5 C-0.66 5 -1.32 5 -2 5 C-2 4.01 -2 3.02 -2 2 C-1.34 2 -0.68 2 0 2 C0 1.34 0 0.68 0 0 Z " fill="#B9B9B9" transform="translate(215,68)"/>
<path d="M0 0 C2.31 0 4.62 0 7 0 C7 0.99 7 1.98 7 3 C4.69 2.67 2.38 2.34 0 2 C0 1.34 0 0.68 0 0 Z " fill="#4C8BC9" transform="translate(93,57)"/>
<path d="M0 0 C0.99 0 1.98 0 3 0 C3 1.98 3 3.96 3 6 C2.01 6 1.02 6 0 6 C0 4.02 0 2.04 0 0 Z " fill="#4C91DA" transform="translate(260,54)"/>
<path d="M0 0 C0.99 0 1.98 0 3 0 C3 1.98 3 3.96 3 6 C2.01 6 1.02 6 0 6 C0 4.02 0 2.04 0 0 Z " fill="#3E85C1" transform="translate(163,36)"/>
<path d="M0 0 C1.0625 1.8125 1.0625 1.8125 2 4 C1.67 4.99 1.34 5.98 1 7 C0.67 6.01 0.34 5.02 0 4 C-1.98 4.99 -1.98 4.99 -4 6 C-2.84826645 3.53199953 -1.95216435 1.95216435 0 0 Z " fill="#8CB7D8" transform="translate(136,28)"/>
<path d="M0 0 C0.66 0.33 1.32 0.66 2 1 C1.67 2.32 1.34 3.64 1 5 C-0.65 4.67 -2.3 4.34 -4 4 C-3.67 3.01 -3.34 2.02 -3 1 C-3 1.66 -3 2.32 -3 3 C-2.01 3 -1.02 3 0 3 C0 2.01 0 1.02 0 0 Z " fill="#5D5D5D" transform="translate(161,72)"/>
<path d="M0 0 C0.66 0.33 1.32 0.66 2 1 C2.625 4.0625 2.625 4.0625 3 7 C2.01 7 1.02 7 0 7 C-0.38133299 5.0085944 -0.71325582 3.00720923 -1 1 C-0.67 0.67 -0.34 0.34 0 0 Z " fill="#686868" transform="translate(259,70)"/>
<path d="M0 0 C1.5 1.1875 1.5 1.1875 3 3 C3.1875 5.6875 3.1875 5.6875 3 8 C2.01 8 1.02 8 0 8 C0 5.36 0 2.72 0 0 Z " fill="#4880B9" transform="translate(62,68)"/>
<path d="M0 0 C0 3 0 3 -1 5 C-3.0625 5.625 -3.0625 5.625 -5 6 C-5 4.68 -5 3.36 -5 2 C-3.35 1.34 -1.7 0.68 0 0 Z " fill="#669AC1" transform="translate(49,65)"/>
<path d="M0 0 C0.99 0.33 1.98 0.66 3 1 C3 2.65 3 4.3 3 6 C2.01 6 1.02 6 0 6 C0 4.02 0 2.04 0 0 Z " fill="#4987C2" transform="translate(106,53)"/>
<path d="M0 0 C0.33 0 0.66 0 1 0 C1 2.31 1 4.62 1 7 C0.01 7 -0.98 7 -2 7 C-2 5.35 -2 3.7 -2 2 C-1.34 2 -0.68 2 0 2 C0 1.34 0 0.68 0 0 Z " fill="#E6F7FD" transform="translate(103,54)"/>
<path d="M0 0 C0.99 0.33 1.98 0.66 3 1 C3.33 2.98 3.66 4.96 4 7 C3.34 7 2.68 7 2 7 C2 6.01 2 5.02 2 4 C1.34 4 0.68 4 0 4 C0 2.68 0 1.36 0 0 Z " fill="#6090C0" transform="translate(118,47)"/>
<path d="M0 0 C0.99 0.33 1.98 0.66 3 1 C3 2.98 3 4.96 3 7 C0.7522025 4.94766315 -0.0022242 3.99332739 -1 1 C-0.67 0.67 -0.34 0.34 0 0 Z " fill="#4385C8" transform="translate(80,40)"/>
<path d="M0 0 C2.16874252 0.50603992 3.99967627 0.99983813 6 2 C5.67 2.99 5.34 3.98 5 5 C2 4 2 4 0.8125 1.9375 C0.544375 1.298125 0.27625 0.65875 0 0 Z " fill="#4081C0" transform="translate(62,37)"/>
<path d="M0 0 C0.66 0.99 1.32 1.98 2 3 C0.68 4.32 -0.64 5.64 -2 7 C-2.33 5.02 -2.66 3.04 -3 1 C-2.01 0.67 -1.02 0.34 0 0 Z " fill="#427EB5" transform="translate(12,35)"/>
</svg>
